<?xml version="1.0" encoding="UTF-8"?>
<!DOCTYPE svg PUBLIC "-//W3C//DTD SVG 1.1//EN" "http://www.w3.org/Graphics/SVG/1.1/DTD/svg11.dtd">
<!-- Creator: CorelDRAW -->
<svg xmlns="http://www.w3.org/2000/svg" xml:space="preserve" width="900px" height="900px" version="1.1" style="shape-rendering:geometricPrecision; text-rendering:geometricPrecision; image-rendering:optimizeQuality; fill-rule:evenodd; clip-rule:evenodd"
viewBox="0 0 145.7 145.7"
 xmlns:xlink="http://www.w3.org/1999/xlink"
 xmlns:xodm="http://www.corel.com/coreldraw/odm/2003">
 <defs>
  <style type="text/css">
   <![CDATA[
    .fil0 {fill:#00D4FF}
    .fil2 {fill:#00D4FF}
    .fil1 {fill:white}
   ]]>
  </style>
 </defs>
 <g id="Capa_x0020_1">
  <metadata id="CorelCorpID_0Corel-Layer"/>
  <path class="fil0" d="M90.21 92.71c0,-0.37 0.03,-0.76 0.08,-1.05 0.05,-0.37 0.13,-0.63 0.18,-0.94 0.08,-0.62 0.13,-1.41 0.32,-1.92 0.2,-0.52 0.18,-1.3 0.46,-1.78 0.28,-0.49 0.28,-0.91 0.46,-1.22 0.3,-0.49 0.2,-0.76 0.54,-1.14 0.21,-0.24 0.22,-0.5 0.36,-0.76 0.09,-0.15 0.13,-0.16 0.22,-0.34 0.33,-0.68 0.41,-0.48 0.65,-1.04 0.11,-0.27 0.3,-0.42 0.46,-0.66 0.27,-0.4 0.3,-0.33 0.48,-0.63 0.09,-0.14 0.15,-0.2 0.25,-0.32 0.11,-0.11 0.15,-0.2 0.25,-0.31 0.12,-0.12 0.2,-0.13 0.31,-0.25 0.09,-0.1 0.12,-0.21 0.21,-0.3l0.58 -0.54c0.28,-0.24 0.15,-0.23 0.59,-0.53 0.19,-0.13 0.12,-0.16 0.27,-0.29 0.13,-0.12 0.19,-0.1 0.33,-0.24 0.19,-0.18 0.43,-0.31 0.64,-0.48 0.39,-0.31 0.33,-0.21 0.7,-0.42 0.16,-0.09 0.17,-0.16 0.3,-0.26 0.2,-0.17 0.51,-0.26 0.72,-0.4 0.39,-0.27 0.67,-0.21 1.06,-0.57 0.13,-0.12 1.38,-0.55 1.64,-0.61 0.28,-0.06 0.54,-0.22 0.79,-0.33 0.23,-0.1 0.62,-0.17 0.91,-0.21 0.7,-0.09 0.93,-0.24 1.88,-0.36 0.19,-0.02 0.29,-0.03 0.53,-0.03 0.22,-0.01 0.26,-0.05 0.52,-0.05 0.34,0 0.63,-0.04 1.03,-0.04 1.02,0 2.05,0.02 3.06,0.09 0.76,0.06 1.44,0.32 2.16,0.42 0.5,0.07 0.58,0.14 0.96,0.34 0.11,0.06 0.17,0.09 0.3,0.13 0.24,0.08 0.44,0.1 0.66,0.2 0.21,0.1 0.35,0.2 0.59,0.27 0.45,0.13 0.54,0.3 1.13,0.6l1.54 1.04c0.09,0.08 0.12,0.14 0.22,0.21 0.33,0.24 0.21,0.18 0.45,0.42 0.08,0.08 0.13,0.09 0.24,0.19l0.45 0.45c0.36,0.28 0.57,0.75 0.8,0.92 0.3,0.22 0.18,0.26 0.36,0.5l0.36 0.51c0.14,0.31 0.19,0.26 0.37,0.49 0.18,0.24 0.12,0.36 0.26,0.61 0.26,0.48 0.4,0.94 0.56,1.16 0.26,0.35 0.24,0.89 0.41,1.31 0.38,0.98 0.25,1.24 0.46,2.12 0.23,0.92 0.22,1.76 0.22,2.72 0,0.84 -0.2,1.46 -0.31,2.23 -0.08,0.51 -0.11,1.08 -0.32,1.57 -0.2,0.47 -0.2,1.03 -0.47,1.43 -0.2,0.29 -0.24,0.57 -0.39,0.86 -0.1,0.17 -0.17,0.21 -0.24,0.41 -0.14,0.39 -0.31,0.43 -0.5,0.75l-0.51 0.73c-0.11,0.21 -0.09,0.24 -0.28,0.37 -0.21,0.13 -0.26,0.25 -0.44,0.39 -0.24,0.18 -0.36,0.39 -0.56,0.52l-1.04 0.68c-0.4,0.32 -0.47,0.25 -0.92,0.45 -0.36,0.16 -0.4,0.25 -0.9,0.35 -0.85,0.16 -1.36,0.42 -2.09,0.42 -1.79,0 -1.07,-0.09 -2.08,-0.37 -0.73,-0.2 -0.49,-0.21 -0.96,-0.46 -0.26,-0.14 -0.27,-0.34 -0.46,-0.49 -0.35,-0.28 -0.21,-0.15 -0.44,-0.52 -0.05,-0.08 -0.15,-0.18 -0.2,-0.27 -0.22,-0.36 -0.23,-1.01 -0.42,-1.42 -0.14,0.09 -0.32,0.12 -0.46,0.19 -0.13,0.07 -0.17,0.23 -0.24,0.36 -0.14,0.24 -0.27,0.2 -0.42,0.4l-0.19 0.24c-0.31,0.31 -0.63,0.67 -1.01,0.89 -0.14,0.08 -0.25,0.12 -0.37,0.23 -0.1,0.11 -0.04,0.08 -0.17,0.18 -0.17,0.12 -0.45,0.16 -0.63,0.27 -0.53,0.29 -0.14,0.19 -0.88,0.37l-0.95 0.3c-0.63,0.13 -1.54,0.18 -2.18,0.01 -0.23,-0.07 -0.46,-0.21 -1.09,-0.37l-1 -0.51c-0.19,-0.11 -0.22,-0.25 -0.36,-0.37 -0.08,-0.07 -0.16,-0.1 -0.23,-0.17l-0.26 -0.29c-0.31,-0.26 -0.33,-0.43 -0.56,-0.74 -0.11,-0.16 -0.15,-0.28 -0.23,-0.5 -0.29,-0.9 -0.42,-0.12 -0.66,-2.31 -0.13,-1.2 -0.1,-1.14 -0.01,-2.23 0.27,-3.17 0.33,-1.57 0.68,-3.07 0.06,-0.25 0.42,-1.14 0.54,-1.31 0.14,-0.2 0.25,-0.31 0.36,-0.56 0.09,-0.23 0.56,-0.92 0.76,-1.13 0.1,-0.11 0.13,-0.12 0.22,-0.25 0.09,-0.13 0.1,-0.17 0.21,-0.27 0.33,-0.31 0.3,-0.36 0.7,-0.68 0.14,-0.12 0.1,-0.13 0.23,-0.24l0.49 -0.42c0.23,-0.22 0.34,-0.2 0.58,-0.37 0.11,-0.08 0.12,-0.13 0.25,-0.21 0.2,-0.14 0.39,-0.19 0.57,-0.34 0.28,-0.23 0.7,-0.25 0.99,-0.44 0.26,-0.18 0.28,-0.24 0.63,-0.32 0.94,-0.21 0.65,-0.29 1.45,-0.4l2.11 -0.21c0.14,-0.01 0.3,0.01 0.43,0 0.54,-0.05 2.78,0.15 3.4,0.22 0.27,0.03 0.52,0.12 0.74,0.21 0.44,0.18 1.01,0.17 1.4,0.46 0.64,0.49 0.44,0.4 0.3,1.1 -0.19,0.88 -0.16,1.83 -0.38,2.73 -0.06,0.22 -0.08,0.42 -0.12,0.65 -0.07,0.41 -0.12,0.95 -0.16,1.39 -0.06,0.49 -0.22,0.8 -0.31,1.25 -0.08,0.43 -0.12,0.91 -0.16,1.39 -0.04,0.46 -0.09,0.95 -0.2,1.36 -0.13,0.51 -0.28,2 -0.03,2.56l0.3 0.61c0.24,0.41 0.76,0.55 1.22,0.55 0.59,0 0.77,-0.14 1.23,-0.36 0.53,-0.25 0.36,-0.28 0.67,-0.49 0.22,-0.15 0.45,-0.33 0.63,-0.54 0.14,-0.17 0.15,-0.29 0.32,-0.45 0.22,-0.21 0.17,-0.22 0.29,-0.49 0.1,-0.21 0.2,-0.29 0.3,-0.47 0.12,-0.19 0.14,-0.36 0.23,-0.55 0.07,-0.13 0.1,-0.12 0.16,-0.23 0.26,-0.45 0.21,-1.09 0.36,-1.58 0.06,-0.19 0.14,-0.35 0.2,-0.58 0.29,-1.19 0.28,-4.42 -0.13,-5.42 -0.15,-0.36 -0.18,-0.74 -0.27,-1.15 -0.09,-0.4 -0.26,-0.61 -0.39,-0.99 -0.18,-0.56 -0.33,-0.54 -0.49,-0.93 -0.07,-0.19 -0.12,-0.35 -0.24,-0.5 -0.3,-0.36 -0.56,-0.84 -0.9,-1.2 -0.45,-0.49 -0.9,-1 -1.46,-1.34 -0.24,-0.15 -0.17,-0.21 -0.39,-0.35 -0.15,-0.1 -0.31,-0.14 -0.45,-0.24l-0.45 -0.29c-1.02,-0.45 -0.08,-0.23 -1.46,-0.6 -0.44,-0.13 -0.4,-0.29 -1.03,-0.39 -0.2,-0.03 -0.38,-0.07 -0.56,-0.13 -0.08,-0.02 -0.19,-0.05 -0.27,-0.08 -0.94,-0.35 -3.83,-0.31 -5.01,-0.18 -0.75,0.09 -0.84,0.18 -1.48,0.33 -1.22,0.28 -0.56,0.16 -1.36,0.45 -0.23,0.08 -0.46,0.09 -0.71,0.19 -0.22,0.09 -0.36,0.24 -0.58,0.32 -0.25,0.1 -0.42,0.18 -0.61,0.34 -0.17,0.15 -0.41,0.18 -0.62,0.29 -0.19,0.11 -0.13,0.11 -0.24,0.23 -0.01,0 -1.09,0.63 -1.32,0.92 -0.1,0.14 -0.56,0.57 -0.73,0.66 -0.34,0.19 -0.21,0.23 -0.43,0.47 -0.1,0.11 -0.14,0.09 -0.23,0.2 -0.08,0.1 -0.1,0.17 -0.2,0.27 -0.11,0.11 -0.17,0.11 -0.25,0.23 -0.06,0.07 -0.12,0.2 -0.18,0.29 -0.05,0.1 -0.12,0.18 -0.18,0.25l-0.37 0.54c-0.15,0.23 -0.24,0.2 -0.37,0.53 -0.05,0.11 -0.09,0.21 -0.16,0.31 -0.23,0.32 -0.29,0.57 -0.48,0.87 -0.33,0.52 -0.28,0.89 -0.51,1.3l-0.27 0.63c-0.07,0.26 -0.12,0.46 -0.22,0.69 -0.19,0.47 -0.22,1.03 -0.28,1.52 -0.08,0.56 -0.21,1 -0.27,1.54 -0.11,1.01 -0.19,2.17 -0.04,3.18 0.09,0.66 0.31,1.38 0.34,2.08 0.01,0.26 0.04,0.44 0.1,0.67l0.4 1.19c0.18,0.43 0.32,0.64 0.46,1.14 0.08,0.26 0.17,0.32 0.3,0.51 0.12,0.17 0.15,0.33 0.26,0.52 0.13,0.22 0.23,0.24 0.34,0.48 0.14,0.27 0.17,0.23 0.34,0.43 0.08,0.09 0.11,0.15 0.18,0.25l0.54 0.63c0.19,0.22 0.42,0.38 0.63,0.57 0.11,0.1 0.08,0.1 0.19,0.2l0.47 0.36c0.18,0.16 0.29,0.16 0.47,0.3 0.23,0.19 0.08,0.24 0.45,0.37 0.41,0.15 0.67,0.4 1.08,0.51 0.37,0.1 0.27,0.09 0.51,0.27 0.29,0.22 0.81,0.25 1.2,0.39 0.42,0.16 0.86,0.24 1.3,0.3l1 0.21c0.87,0.27 2.77,0.2 3.7,0.01 0.6,-0.12 1.2,-0.21 1.82,-0.29 0.43,-0.06 0.52,-0.1 0.87,-0.22 0.29,-0.09 0.55,-0.12 0.85,-0.18 0.38,-0.08 0.42,-0.09 0.72,-0.31 0.31,-0.23 1.1,-0.43 1.29,0.09 0.08,0.2 0.11,0.43 0.16,0.67 0.09,0.53 0.45,0.94 0.45,1.18 0,0.35 -0.34,0.61 -0.63,0.71 -0.18,0.06 -0.33,0.08 -0.49,0.15 -0.17,0.08 -0.24,0.16 -0.42,0.23 -0.31,0.11 -0.73,0.11 -1.07,0.22 -0.42,0.15 -0.39,0.26 -0.95,0.35 -0.4,0.07 -0.75,0.1 -1.17,0.17 -0.37,0.05 -0.66,0.18 -1.09,0.2 -0.39,0.02 -0.78,0.09 -1.2,0.09 -0.87,-0.01 -1.82,0.11 -2.56,0.01l-1.24 -0.06 -2.18 -0.4c-0.45,-0.08 -0.6,-0.24 -0.97,-0.37 -0.34,-0.12 -0.68,-0.11 -1.01,-0.28 -0.17,-0.08 -0.23,-0.15 -0.42,-0.22 -0.53,-0.21 -0.51,-0.28 -0.86,-0.44 -0.16,-0.07 -0.32,-0.11 -0.46,-0.19 -0.15,-0.07 -0.25,-0.18 -0.41,-0.28 -0.15,-0.09 -0.27,-0.13 -0.43,-0.22 -0.17,-0.1 -0.18,-0.18 -0.35,-0.29 -0.73,-0.41 -0.79,-0.63 -1.48,-1.11 -0.17,-0.12 -0.17,-0.21 -0.3,-0.34l-0.7 -0.63c-0.14,-0.12 -0.16,-0.23 -0.27,-0.38 -0.11,-0.15 -0.19,-0.18 -0.3,-0.35 -0.1,-0.13 -0.17,-0.28 -0.26,-0.39 -0.11,-0.14 -0.2,-0.17 -0.3,-0.34l-0.48 -0.81c-0.16,-0.32 -0.41,-0.49 -0.51,-0.83 -0.11,-0.36 -0.3,-0.54 -0.4,-0.89 -0.05,-0.18 -0.09,-0.36 -0.15,-0.5 -0.09,-0.22 -0.17,-0.24 -0.26,-0.39 -0.16,-0.28 -0.14,-0.7 -0.23,-1.06 -0.06,-0.22 -0.14,-0.29 -0.2,-0.49 -0.2,-0.71 -0.22,-1.49 -0.37,-2.22 -0.16,-0.79 -0.15,-1.69 -0.15,-2.52zm-58.62 -5.26c0.43,-0.81 1.19,-0.98 1.55,-1.35 0.24,-0.25 0.58,-0.38 0.84,-0.62 0.14,-0.14 0.28,-0.17 0.44,-0.29 0.19,-0.14 0.13,-0.19 0.36,-0.33 0.47,-0.26 0.57,-0.4 0.9,-0.57 0.21,-0.12 0.23,-0.22 0.39,-0.34 0.16,-0.12 0.25,-0.13 0.41,-0.28 0.18,-0.18 0.22,-0.18 0.42,-0.32 0.16,-0.1 0.25,-0.2 0.42,-0.31 0.15,-0.1 0.32,-0.15 0.45,-0.28 0.13,-0.12 0.2,-0.23 0.36,-0.33 0.23,-0.13 0.24,-0.12 0.44,-0.29 0.15,-0.14 0.3,-0.15 0.46,-0.27 0.15,-0.1 0.23,-0.25 0.38,-0.35 0.17,-0.11 0.27,-0.13 0.43,-0.27 0.09,-0.08 0.1,-0.12 0.2,-0.18 0.43,-0.26 0.36,-0.27 0.63,-0.45 0.16,-0.11 0.32,-0.15 0.46,-0.27 0.17,-0.15 0.16,-0.19 0.38,-0.32 0.07,-0.04 0.16,-0.09 0.22,-0.16 0.48,-0.48 0.3,-0.17 0.65,-0.43 0.16,-0.12 0.19,-0.23 0.39,-0.34 0.47,-0.25 0.37,-0.28 0.85,-0.58 0.39,-0.23 0.81,-0.68 1.24,-0.91 0.21,-0.12 0.23,-0.22 0.39,-0.34 0.15,-0.11 0.28,-0.14 0.45,-0.28 0.26,-0.22 0.63,-0.33 0.83,-0.6 0.17,-0.23 0.34,-0.24 0.54,-0.41 0.23,-0.19 0.52,-0.3 0.72,-0.52l0.83 -0.6c0.21,-0.13 0.23,-0.13 0.42,-0.31 0.16,-0.15 1,-0.64 1.27,-0.88 0.18,-0.16 0.17,-0.21 0.41,-0.33 0.19,-0.1 0.31,-0.13 0.46,-0.27l0.79 -0.64c0.43,-0.24 0.66,-0.46 1.06,-0.74l0.64 -0.44c0.19,-0.16 0.17,-0.18 0.41,-0.33l0.84 -0.57c0.15,-0.11 0.23,-0.26 0.38,-0.36l0.44 -0.29c0.19,-0.16 0.47,-0.26 0.65,-0.43 0,-0.01 0.01,-0.02 0.02,-0.02l0.06 -0.07c0.17,-0.17 0.38,-0.22 0.54,-0.36l0.43 -0.31c0.22,-0.15 0.58,-0.54 0.88,-0.54 0.65,0 0.63,0.2 1.16,0.56 0.08,0.06 0.14,0.09 0.24,0.15 0.11,0.08 0.09,0.08 0.18,0.16 0.15,0.13 0.29,0.14 0.43,0.26l0.8 0.63c0.32,0.26 0.33,0.12 0.8,0.58l0.84 0.57c0.59,0.29 0.14,0.15 0.83,0.6l0.81 0.61c0.22,0.21 0.5,0.33 0.79,0.59 0.14,0.12 0.3,0.16 0.45,0.28 0.17,0.14 0.17,0.19 0.38,0.31 0.49,0.29 0.52,0.42 0.84,0.59 0.22,0.12 0.24,0.2 0.41,0.32 0.14,0.11 0.27,0.14 0.42,0.26l0.61 0.43c0.16,0.11 0.08,0.07 0.17,0.17 0.13,0.13 0.31,0.17 0.45,0.29 0.18,0.15 0.1,0.21 0.35,0.34 0.22,0.11 0.28,0.13 0.46,0.27 0.15,0.12 0.21,0.18 0.4,0.29 0.1,0.06 0.15,0.08 0.23,0.16 0.21,0.24 0.37,0.25 0.59,0.45l0.61 0.42c0.22,0.12 0.62,-0.02 0.81,-0.15l0.83 -0.59c0.12,-0.12 0.19,-0.25 0.35,-0.33 0.3,-0.15 0.6,-0.37 0.88,-0.55 0.15,-0.1 0.21,-0.22 0.36,-0.33 0.1,-0.07 0.12,-0.07 0.22,-0.12 0.25,-0.14 0.81,-0.56 1.03,-0.75 0.19,-0.16 0.41,-0.22 0.59,-0.39l0.04 -0.04c0.08,-0.08 0.1,-0.09 0.2,-0.15 0.49,-0.3 0.15,-0.2 0.82,-0.6 0.2,-0.12 0.21,-0.19 0.38,-0.31 0.16,-0.11 0.29,-0.14 0.44,-0.26l0.13 -0.13c0,0 0.01,-0.01 0.02,-0.02l1.09 -0.76c0.17,-0.11 0.2,-0.19 0.39,-0.3l0.4 -0.33c0.18,-0.22 0.19,-0.14 0.42,-0.27 0.16,-0.08 0.25,-0.19 0.4,-0.3 0.15,-0.11 0.29,-0.14 0.43,-0.25 0.13,-0.11 0.23,-0.27 0.37,-0.36 0.09,-0.06 0.14,-0.07 0.22,-0.12l0.71 -0.51c0.33,-0.29 0.64,-0.45 0.72,-0.52 0.17,-0.15 0.23,-0.17 0.41,-0.28 0.18,-0.11 0.23,-0.2 0.38,-0.31 0.59,-0.46 0.98,-0.31 1.52,0.16l0.48 0.34c0.31,0.26 0.45,0.25 0.79,0.59 0.28,0.27 0.94,0.58 1.27,0.92 0.23,0.23 1.23,0.78 1.32,0.89 0.13,0.15 0.06,0.16 0.28,0.27 0.13,0.07 0.21,0.11 0.32,0.2l0.96 0.72c0.29,0.16 0.39,0.34 0.62,0.46 0.3,0.16 0.4,0.34 0.64,0.47 0.24,0.13 0.43,0.31 0.63,0.46 0.13,0.1 0.26,0.12 0.39,0.25 0.01,0.01 0.02,0.02 0.02,0.02l0.09 0.09c0.05,0.05 0.08,0.08 0.14,0.11 0.3,0.19 0.34,0.19 0.65,0.44 0.31,0.25 0.64,0.4 0.74,0.85 -0.12,0.18 -0.2,0.21 -0.4,0.33 -0.19,0.11 -0.21,0.21 -0.4,0.33 -0.29,0.17 -0.3,0.35 -0.56,0.52 -0.16,0.1 -0.24,0.23 -0.38,0.35 -0.06,0.05 -0.15,0.09 -0.2,0.14 -0.12,0.1 -0.19,0.27 -0.31,0.38 -0.25,0.23 -0.54,0.42 -0.72,0.71 -0.15,0.23 -0.14,0.21 -0.35,0.38 -0.19,0.14 -0.17,0.24 -0.33,0.4 -0.18,0.19 -0.32,0.45 -0.49,0.59 -0.2,0.17 -0.28,0.42 -0.43,0.65 -0.09,0.14 -0.21,0.22 -0.3,0.39 -0.05,0.11 -0.04,0.16 -0.12,0.27 -0.05,0.06 -0.11,0.11 -0.17,0.17 -0.12,0.13 -0.18,0.26 -0.24,0.45 -0.13,0.37 -0.33,0.38 -0.54,0.93 -0.17,0.43 -0.28,0.35 -0.45,0.96 -0.08,0.29 -0.12,0.27 -0.27,0.47 -0.12,0.15 -0.14,0.28 -0.2,0.49 -0.11,0.4 -0.29,0.6 -0.4,1.02 -0.05,0.21 -0.07,0.4 -0.13,0.6 -0.2,0.64 -0.42,0.6 -0.5,1.62 -0.01,0.24 -0.05,0.4 -0.14,0.59 -0.25,0.54 -0.01,1.31 -0.8,1.31l-49.44 0c-0.42,0 -1.51,-0.03 -1.85,-0.09 -0.26,-0.05 -0.46,-0.16 -0.73,-0.22 -1.55,-0.31 -0.48,-0.05 -1.77,-0.65 -0.13,-0.06 -0.16,-0.1 -0.28,-0.19 -0.41,-0.34 -0.66,-0.33 -0.98,-0.92zm56.86 -21.51c0,-0.81 0.27,-0.58 0.57,-0.85 0.12,-0.11 0.21,-0.25 0.35,-0.33 0.2,-0.13 0.21,-0.07 0.42,-0.27 0.34,-0.31 0.49,-0.29 0.63,-0.41 0.32,-0.29 -0.11,-0.03 0.58,-0.46l0.8 -0.58c0.26,-0.24 1.15,-0.81 1.21,-0.86 0.44,-0.42 0.59,-0.38 0.79,-0.58 0.16,-0.16 0.19,-0.18 0.39,-0.3 0.44,-0.25 -0.08,-0.05 0.84,-0.54l0.76 -0.63c0.18,-0.18 0.22,-0.14 0.42,-0.27 0.14,-0.09 0.2,-0.2 0.37,-0.32l0.83 -0.54c0.22,-0.1 0.25,-0.11 0.39,-0.3l0.78 -0.59c0.15,-0.1 0.3,-0.15 0.44,-0.26 0.17,-0.15 0.09,-0.19 0.35,-0.34l0.84 -0.54c0.15,-0.11 0.22,-0.19 0.38,-0.31 0.15,-0.11 0.3,-0.15 0.42,-0.26 0.1,-0.09 0.05,-0.08 0.17,-0.18 0.06,-0.05 0.14,-0.09 0.21,-0.13 0.34,-0.2 0.15,-0.18 0.82,-0.56 0.17,-0.1 0.23,-0.21 0.36,-0.33 0.15,-0.13 0.27,-0.13 0.42,-0.27 0.17,-0.17 0.17,-0.17 0.4,-0.29l1.19 -0.88c0.24,-0.13 0.22,-0.09 0.41,-0.28l1.23 -0.84c0.12,-0.11 0.21,-0.25 0.35,-0.34 0.15,-0.11 0.3,-0.13 0.44,-0.25 0.17,-0.14 0.17,-0.18 0.39,-0.3 0.21,-0.12 0.22,-0.15 0.39,-0.3 0.25,-0.23 0.14,-0.01 0.59,-0.45l1.02 -0.7c0.22,-0.12 0.2,-0.16 0.37,-0.32 0.15,-0.13 0.29,-0.13 0.43,-0.25 0.18,-0.15 0.14,-0.19 0.39,-0.31 0.73,-0.36 0.4,-0.34 0.8,-0.57l0.8 -0.59c0.25,-0.25 0.54,-0.35 0.79,-0.58 0.17,-0.15 0.25,-0.16 0.42,-0.27 0.39,-0.24 0.07,-0.4 0.87,-0.22 0,0.15 -0.01,0.24 -0.02,0.37 -0.02,0.21 0.02,0.11 0.02,0.32l0 23.66c0,0.18 -0.28,0.35 -0.48,0.35 -0.73,0 -1.1,-0.36 -2.5,-0.47l-2.8 -0.13c-0.3,0 -0.45,0.03 -0.69,0.04 -0.28,0.01 -0.48,0 -0.7,0.03 -0.43,0.06 -0.96,0.01 -1.4,0.06 -1.34,0.15 -1.29,0.19 -2.47,0.43 -0.19,0.04 -0.39,0.09 -0.58,0.15 -0.21,0.08 -0.29,0.15 -0.51,0.22 -0.37,0.12 -0.85,0.14 -1.18,0.29 -0.2,0.09 -0.26,0.17 -0.48,0.25 -0.17,0.06 -0.38,0.09 -0.55,0.18 -0.21,0.09 -0.76,0.62 -1.48,0.24 -0.13,-0.06 -0.18,-0.18 -0.3,-0.26 -0.13,-0.11 -0.2,-0.09 -0.34,-0.22 -0.12,-0.11 -0.15,-0.18 -0.3,-0.27 -0.82,-0.46 -0.38,-0.27 -1,-0.67 -0.13,-0.09 -0.17,-0.18 -0.3,-0.26 -0.13,-0.07 -0.25,-0.11 -0.36,-0.21 -0.15,-0.13 -0.08,-0.15 -0.28,-0.27 -0.12,-0.08 -0.24,-0.14 -0.35,-0.21 -0.13,-0.08 -0.17,-0.16 -0.31,-0.25 -0.13,-0.08 -0.25,-0.12 -0.37,-0.2 -0.29,-0.2 0.06,-0.15 -0.62,-0.49 -0.24,-0.13 -0.24,-0.23 -0.65,-0.44 -0.34,-0.17 -0.21,-0.26 -0.63,-0.49l-0.95 -0.72c-0.22,-0.17 -0.46,-0.25 -0.65,-0.44 -0.16,-0.16 -0.12,-0.12 -0.32,-0.23 -0.16,-0.09 -0.17,-0.15 -0.3,-0.26l-0.99 -0.69c-0.21,-0.11 -0.67,-0.57 -0.98,-0.66zm-57.71 17.73c-0.17,0.17 -0.23,0.13 -0.42,0.26 -0.17,0.12 -0.15,0.17 -0.36,0.29 -0.19,-0.13 -0.18,-0.09 -0.29,-0.32 -0.08,-0.16 -0.13,-0.25 -0.18,-0.43 -0.11,-0.39 -0.09,-0.57 -0.09,-1.06l-0.02 -35.17c0.01,-0.11 0.02,-0.03 0.06,-0.17 0.83,0 0.51,0.19 0.99,0.43l0.82 0.56c0.16,0.12 0.21,0.21 0.4,0.32l0.84 0.54c0.22,0.14 0.17,0.23 0.35,0.34 0.16,0.1 0.34,0.14 0.49,0.25 0.14,0.11 0.18,0.23 0.36,0.33 0.11,0.06 0.13,0.05 0.22,0.12 0.07,0.06 0.1,0.12 0.17,0.18l1.65 1.15c0.15,0.08 0.25,0.22 0.37,0.32 0.12,0.12 0.31,0.18 0.45,0.28 0.13,0.09 0.25,0.22 0.39,0.3 0.34,0.21 0.47,0.43 0.79,0.59 0.23,0.12 0.22,0.18 0.43,0.31 0.15,0.08 0.31,0.15 0.44,0.24 0.14,0.1 0.23,0.24 0.36,0.34l0.39 0.29c0.14,0.14 0.3,0.16 0.45,0.29 0.51,0.45 0.67,0.45 0.82,0.6l0.37 0.27c0.32,0.17 0.37,0.33 0.82,0.56 0.21,0.12 0.22,0.19 0.39,0.31 0.15,0.1 0.26,0.15 0.4,0.29l1.61 1.18c0.24,0.15 0.23,0.09 0.43,0.31l0.8 0.58c0.14,0.09 0.33,0.15 0.43,0.25 0.13,0.14 0.2,0.27 0.38,0.36 0.3,0.15 0.55,0.35 0.84,0.54 0.16,0.12 0.22,0.22 0.37,0.32 0.08,0.06 0.15,0.09 0.24,0.15 0.24,0.17 0.24,0.24 0.59,0.44 0.17,0.1 0.22,0.21 0.37,0.32 0.14,0.1 0.29,0.15 0.45,0.24 0.18,0.11 0.23,0.23 0.39,0.34l2.05 1.44c0.3,0.16 0.51,0.4 0.79,0.59l0.43 0.31c0.21,0.14 0.23,0.08 0.4,0.29 0.19,0.26 0.54,0.39 0.79,0.59 0.21,0.17 0.44,0.21 0.62,0.41 0.15,0.18 0.45,0.27 0.58,0.46 0.07,0.11 0.12,0.36 0.18,0.5 -0.15,0.1 -0.25,0.17 -0.43,0.26 -0.22,0.11 -0.21,0.18 -0.38,0.31 -0.15,0.11 -0.27,0.11 -0.43,0.26 -0.3,0.29 -0.6,0.34 -0.82,0.56 -0.17,0.18 -0.38,0.28 -0.57,0.46 -0.17,0.17 -0.38,0.26 -0.59,0.4 -0.15,0.1 -0.22,0.2 -0.38,0.31 -0.17,0.12 -0.89,0.57 -1.01,0.72 -0.16,0.18 -0.4,0.28 -0.6,0.42 -0.14,0.11 -0.22,0.2 -0.4,0.3 -0.37,0.21 -0.37,0.41 -0.76,0.57l-0.83 0.55c-0.14,0.1 -0.19,0.21 -0.36,0.33 -0.16,0.11 -0.28,0.14 -0.42,0.27l-0.79 0.59c-0.15,0.1 -0.3,0.14 -0.44,0.25 -0.14,0.12 -0.16,0.2 -0.34,0.31 -0.24,0.14 -0.21,0.1 -0.38,0.31 -0.11,0.14 -0.26,0.18 -0.43,0.26 -0.23,0.11 -0.21,0.15 -0.38,0.31 -0.15,0.14 -0.24,0.13 -0.4,0.24 -0.17,0.11 -0.17,0.2 -0.38,0.31 -0.21,0.12 -0.24,0.15 -0.41,0.28l-1.18 0.85c-0.16,0.15 -0.17,0.2 -0.38,0.31 -0.3,0.16 -0.52,0.39 -0.83,0.54 -0.28,0.14 -0.17,0.14 -0.36,0.33 -0.15,0.16 -0.26,0.15 -0.44,0.26 -0.38,0.22 -0.75,0.68 -1.14,0.88 -0.09,0.05 -0.15,0.06 -0.23,0.12 -0.08,0.06 -0.1,0.1 -0.18,0.16l-0.82 0.56c-0.08,0.05 -0.14,0.08 -0.22,0.12 -0.24,0.14 -0.29,0.3 -0.58,0.46 -0.17,0.1 -0.21,0.22 -0.36,0.33 -0.14,0.1 -0.27,0.13 -0.42,0.22 -0.23,0.13 -0.18,0.2 -0.36,0.33 -0.15,0.11 -0.29,0.13 -0.43,0.27 -0.19,0.18 -0.18,0.14 -0.4,0.28 -0.18,0.11 -0.23,0.2 -0.37,0.32l-0.53 0.34c-0.31,0.25 -0.54,0.31 -0.7,0.51 -0.15,0.19 -0.36,0.26 -0.57,0.41 -0.09,0.06 -0.11,0.1 -0.19,0.16 -0.14,0.11 -0.28,0.16 -0.43,0.26 -0.18,0.12 -0.14,0.19 -0.36,0.33l-1.19 0.84zm42.24 -11.21c-0.11,0.09 -0.16,0.18 -0.28,0.27 -0.13,0.1 -0.23,0.13 -0.34,0.23 -0.08,0.07 -0.17,0.22 -0.29,0.22 -0.55,0 -0.32,0.07 -0.7,-0.24 -0.12,-0.1 -0.23,-0.12 -0.36,-0.21 -0.13,-0.08 -0.17,-0.18 -0.3,-0.26 -0.26,-0.18 -0.46,-0.22 -0.66,-0.46l-0.64 -0.48c-0.12,-0.1 -0.2,-0.11 -0.32,-0.19l-1.28 -0.93c-0.15,-0.08 -0.18,-0.14 -0.3,-0.26l-0.97 -0.66c-0.26,-0.15 -0.37,-0.36 -0.62,-0.5 -0.52,-0.3 -1.01,-0.75 -1.32,-0.93 -0.4,-0.23 -0.37,-0.32 -0.62,-0.45 -0.26,-0.14 -0.37,-0.35 -0.63,-0.49 -0.38,-0.2 -0.33,-0.21 -0.64,-0.44 -0.12,-0.09 -0.24,-0.14 -0.34,-0.22 -0.13,-0.11 -0.11,-0.15 -0.3,-0.26 -0.64,-0.36 -0.53,-0.41 -0.98,-0.66 -0.18,-0.1 -0.17,-0.15 -0.32,-0.24 -0.75,-0.47 -0.32,-0.3 -0.62,-0.5l-0.66 -0.46c-0.12,-0.09 -0.24,-0.11 -0.36,-0.2 -0.29,-0.21 -0.13,-0.27 -0.6,-0.48l-2.55 -1.84c-0.2,-0.1 -0.18,-0.09 -0.32,-0.24 -0.19,-0.2 -0.46,-0.28 -0.65,-0.48 -0.19,-0.19 -0.48,-0.26 -0.67,-0.45 -0.18,-0.18 -0.43,-0.29 -0.62,-0.45 -0.37,-0.31 -0.29,-0.22 -0.65,-0.47 -0.15,-0.1 -0.19,-0.16 -0.31,-0.25 -0.1,-0.08 -0.21,-0.12 -0.32,-0.2 -0.15,-0.1 -0.16,-0.16 -0.31,-0.25 -0.38,-0.21 -0.42,-0.42 -0.61,-0.51 -0.29,-0.14 -0.41,-0.25 -0.66,-0.42 -0.14,-0.1 -0.22,-0.11 -0.36,-0.2 -0.16,-0.1 -0.15,-0.17 -0.27,-0.29 -0.12,-0.11 -0.23,-0.12 -0.36,-0.2l-0.64 -0.48c-0.13,-0.1 -0.19,-0.17 -0.31,-0.26 -0.1,-0.07 -0.2,-0.11 -0.33,-0.18 -0.15,-0.09 -0.18,-0.15 -0.3,-0.26 -0.13,-0.11 -0.22,-0.11 -0.35,-0.21 -0.12,-0.1 -0.14,-0.16 -0.29,-0.27 -0.24,-0.16 -0.47,-0.23 -0.66,-0.42 -0.13,-0.14 -0.17,-0.15 -0.31,-0.25 -0.13,-0.09 -0.18,-0.17 -0.29,-0.26 -0.2,-0.17 -0.49,-0.24 -0.67,-0.42 -0.2,-0.2 -0.73,-0.56 -0.98,-0.7 -0.24,-0.13 -0.39,-0.34 -0.63,-0.49l-0.64 -0.44c-0.28,-0.17 -0.32,-0.38 -0.61,-0.51 -0.34,-0.15 -0.39,-0.28 -0.65,-0.43 -0.13,-0.07 -0.25,-0.11 -0.36,-0.19 -0.16,-0.13 -0.09,-0.16 -0.28,-0.28l-1.28 -0.93c-0.12,-0.08 -0.24,-0.11 -0.36,-0.19 -0.15,-0.1 -0.15,-0.19 -0.27,-0.29 -0.11,-0.08 -0.24,-0.12 -0.36,-0.21 -0.12,-0.08 -0.16,-0.17 -0.3,-0.25 -0.13,-0.09 -0.22,-0.12 -0.36,-0.21 -0.23,-0.16 -0.35,-0.32 -0.61,-0.46 -0.18,-0.1 -0.17,-0.15 -0.31,-0.25l-0.63 -0.45c-0.23,-0.19 -0.46,-0.26 -0.66,-0.46 -0.22,-0.22 -0.38,-0.19 -0.61,-0.47 -0.16,-0.18 -0.46,-0.31 -0.66,-0.46 -0.2,-0.15 -0.5,-0.26 -0.64,-0.43 -0.14,-0.17 -0.08,-0.16 -0.3,-0.27 -0.26,-0.13 -0.4,-0.3 -0.66,-0.46 -0.39,-0.22 -0.36,-0.31 -0.6,-0.47l-1.65 -1.11c-0.18,-0.12 -0.31,-0.45 -0.49,-0.59 0.11,-0.17 0.2,-0.26 0.32,-0.45 0.17,-0.29 0.15,-0.19 0.38,-0.36 0.16,-0.12 0.23,-0.26 0.4,-0.37 0.22,-0.14 0.23,-0.19 0.4,-0.34 0.21,-0.18 0.51,-0.27 0.73,-0.43 0.22,-0.16 0.5,-0.21 0.77,-0.3 0.26,-0.09 0.26,-0.19 0.46,-0.27 0.54,-0.24 1.42,-0.2 2.06,-0.19 0.29,0 0.44,-0.04 0.68,-0.05 0.51,-0.01 1.04,0.01 1.47,0.04 0.63,0.06 3.02,0.01 3.88,0.01 0.27,0 0.36,-0.05 0.65,-0.05 0.49,0 0.83,0.05 1.33,0.05 0.44,0 0.7,-0.05 1.13,-0.05 0.24,0.01 0.29,0.05 0.55,0.05 1.41,0 2.87,0.03 4.27,-0.05 0.51,-0.02 0.93,0.05 1.38,0.05 0.5,0 0.86,-0.05 1.38,-0.05 0.26,0.01 0.39,0.05 0.69,0.05l4.39 -0.05c0.36,0 0.64,0.05 1.04,0.05 0.42,0 0.69,-0.05 1.08,-0.05 0.25,0 0.29,0.04 0.51,0.05 1.02,0.03 2.05,0 3.07,0l1.37 -0.05c0.52,-0.01 0.91,0.05 1.38,0.05 0.48,0 0.87,-0.06 1.38,-0.05 0.25,0.01 0.39,0.05 0.69,0.05 1.27,-0.01 2.53,0.04 3.8,0 0.22,-0.01 0.29,-0.05 0.56,-0.05 0.39,0 0.68,0.05 1.12,0.05 0.39,0 0.63,-0.05 0.99,-0.05 0.23,0.01 0.26,0.04 0.47,0.05 1.32,0.04 2.65,-0.01 3.97,0 0.29,0 0.39,-0.05 0.69,-0.05 0.53,0 0.93,0.05 1.46,0.05 0.43,0 0.7,-0.06 1.13,-0.05 0.22,0.01 0.26,0.05 0.51,0.05l3.88 0c0.25,0 0.3,-0.05 0.56,-0.05 0.42,0 0.69,0.05 1.12,0.05 0.5,0 0.84,-0.05 1.34,-0.05 0.27,0 0.36,0.05 0.64,0.05l3.67 0c0.27,0 0.36,-0.05 0.64,-0.05 0.49,0 0.84,0.05 1.34,0.05 0.43,0 0.7,-0.05 1.12,-0.05 0.25,0.01 0.3,0.05 0.56,0.05l3.88 0c0.24,0 0.28,-0.04 0.52,-0.05 0.42,0 0.69,0.05 1.12,0.05 0.54,0 0.92,-0.05 1.47,-0.05 0.28,0 0.41,0.05 0.73,0.05 0.24,0 0.49,0 0.73,0 1.03,0 2.31,-0.13 3.01,0.35 0.24,0.17 0.54,0.18 0.81,0.31 0.21,0.09 0.28,0.19 0.45,0.28 0.13,0.06 0.42,0.15 0.5,0.23 0.12,0.12 0.24,0.28 0.39,0.39 0.23,0.14 0.2,0.21 0.38,0.35 0.23,0.18 0.2,0.12 0.35,0.38 0.12,0.21 0.21,0.26 0.32,0.42 -0.1,0.14 -0.37,0.52 -0.51,0.61 -0.37,0.24 -0.25,0.12 -0.67,0.46 -0.1,0.08 -0.23,0.14 -0.35,0.21 -0.16,0.1 -0.16,0.16 -0.3,0.26 -0.39,0.26 -0.23,0.12 -0.62,0.46 -0.2,0.18 -0.76,0.51 -1.01,0.66 -0.19,0.12 -0.13,0.13 -0.26,0.26 -0.11,0.12 -0.2,0.13 -0.35,0.21 -0.16,0.09 -0.19,0.13 -0.32,0.24 -0.23,0.21 -0.42,0.16 -0.64,0.44 -0.22,0.3 -0.38,0.26 -0.63,0.49 -0.21,0.19 -0.44,0.28 -0.65,0.47 -0.25,0.24 -1.06,0.72 -1.27,0.93 -0.27,0.28 -0.45,0.21 -0.69,0.43 -0.1,0.1 -0.17,0.2 -0.29,0.28 -0.62,0.42 -0.14,0.21 -0.8,0.57 -0.05,0.02 -0.12,0.07 -0.16,0.1 -0.14,0.09 -0.19,0.16 -0.31,0.25 -0.1,0.07 -0.2,0.12 -0.32,0.2 -0.15,0.09 -0.16,0.15 -0.31,0.25 -0.12,0.08 -0.26,0.12 -0.35,0.21 -0.15,0.13 -0.07,0.14 -0.28,0.28l-0.66 0.46c-0.14,0.08 -0.25,0.09 -0.37,0.18 -0.15,0.11 -0.15,0.2 -0.26,0.3 -0.11,0.09 -0.23,0.12 -0.34,0.19 -0.1,0.06 -0.21,0.16 -0.32,0.24l-0.94 0.69c-0.22,0.11 -0.17,0.1 -0.32,0.24 -0.13,0.12 -0.22,0.11 -0.35,0.22 -0.21,0.17 -0.35,0.33 -0.61,0.46 -0.18,0.09 -0.2,0.09 -0.34,0.23l-0.94 0.69c-0.25,0.16 -0.39,0.33 -0.64,0.48 -0.24,0.14 -0.39,0.33 -0.62,0.45 -0.26,0.14 -0.43,0.3 -0.66,0.47l-0.95 0.69c-0.13,0.12 -0.14,0.16 -0.3,0.25l-0.64 0.44c-0.13,0.08 -0.25,0.12 -0.37,0.2 -0.15,0.1 -0.13,0.17 -0.26,0.29 -0.01,0.01 -1.57,1.05 -1.94,1.38 -0.12,0.11 -0.22,0.13 -0.35,0.21 -0.13,0.08 -0.19,0.17 -0.3,0.26 -0.22,0.18 -0.43,0.23 -0.65,0.44 -0.17,0.17 -0.37,0.25 -0.62,0.49 -0.19,0.19 -0.43,0.21 -0.65,0.43 -0.21,0.21 -0.49,0.28 -0.66,0.46 -0.18,0.2 -0.44,0.3 -0.63,0.49 -0.22,0.21 -0.42,0.28 -0.65,0.47 -0.21,0.18 -0.48,0.24 -0.63,0.45 -0.28,0.35 -0.35,0.23 -0.66,0.46 -0.12,0.1 -0.15,0.16 -0.31,0.25 -0.52,0.31 -0.34,0.29 -0.61,0.47 -0.12,0.08 -0.24,0.11 -0.35,0.21 -0.13,0.11 -0.14,0.15 -0.31,0.25 -0.11,0.08 -0.21,0.12 -0.31,0.2 -0.12,0.1 -0.18,0.16 -0.31,0.26 -0.13,0.09 -0.22,0.11 -0.35,0.2 -0.19,0.14 -0.12,0.17 -0.28,0.28 -0.14,0.09 -0.23,0.09 -0.36,0.21 -0.12,0.1 -0.16,0.18 -0.29,0.27 -0.16,0.11 -0.38,0.18 -0.54,0.32l-0.45 0.32c-0.13,0.08 -0.18,0.17 -0.3,0.26 -0.42,0.3 -0.9,0.57 -1.29,0.92 -0.12,0.11 -0.2,0.13 -0.33,0.22 -0.25,0.17 -0.31,0.32 -0.61,0.47 -0.29,0.14 -0.41,0.32 -0.66,0.46 -0.42,0.23 -0.31,0.33 -0.6,0.48 -0.26,0.12 -0.43,0.29 -0.68,0.44 -0.25,0.16 -0.38,0.34 -0.6,0.48 -0.14,0.09 -0.22,0.09 -0.35,0.21l-0.64 0.48c-0.37,0.28 -0.53,0.32 -0.66,0.42zm-66.21 -1.43l0 3.62c0,1.27 0.02,2.58 0.17,3.84 0.03,0.3 0.09,0.58 0.12,0.86 0.03,0.3 0.02,0.63 0.06,0.93 0.12,0.87 0.08,1.83 0.37,2.65 0.29,0.79 0.19,1.84 0.44,2.58 0.16,0.52 0.19,1.13 0.3,1.68 0.06,0.34 0.15,0.48 0.26,0.74 0.19,0.49 0.17,1.17 0.34,1.68 0.09,0.27 0.18,0.42 0.24,0.75 0.06,0.32 0.08,0.54 0.18,0.81 0.11,0.31 0.23,0.35 0.31,0.73 0.06,0.27 0.08,0.58 0.16,0.83 0.07,0.24 0.21,0.39 0.3,0.69 0.08,0.29 0.1,0.51 0.21,0.78 0.13,0.28 0.23,0.39 0.3,0.73 0.22,0.98 0.27,0.71 0.52,1.47 0.12,0.35 0.21,0.41 0.32,0.66 0.1,0.24 0.13,0.57 0.21,0.83 0.08,0.28 0.28,0.34 0.38,0.62 0.21,0.66 0.35,0.88 0.52,1.45 0.13,0.42 0.19,0.35 0.39,0.65 0.15,0.21 0.14,0.49 0.28,0.71 0.06,0.11 0.11,0.18 0.17,0.31 0.1,0.22 0.16,0.48 0.31,0.68 0.07,0.09 0.17,0.2 0.22,0.29 0.13,0.27 0.12,0.49 0.31,0.73 0.24,0.33 0.25,0.59 0.52,0.94 0.16,0.21 0.21,0.43 0.33,0.66 0.08,0.15 0.13,0.17 0.21,0.32 0.12,0.23 0.19,0.46 0.37,0.65 0.23,0.25 0.19,0.37 0.34,0.66 0.12,0.25 0.28,0.3 0.4,0.59 0.1,0.24 0.26,0.39 0.38,0.61 0.07,0.13 0.09,0.25 0.16,0.36 0.07,0.1 0.17,0.17 0.25,0.27l0.76 1.22c0.36,0.4 0.06,-0.09 0.41,0.58 0.07,0.14 0.12,0.19 0.21,0.3 0.15,0.19 0.21,0.45 0.39,0.61 0.11,0.1 0.19,0.11 0.27,0.24 0.08,0.13 0.07,0.17 0.17,0.31l0.4 0.59c0.08,0.15 0.13,0.16 0.24,0.28l1.75 2.26c0.09,0.13 0.17,0.14 0.26,0.25 0.22,0.27 0.11,0.2 0.45,0.55l0.47 0.52c0.22,0.25 0.1,0.17 0.44,0.51l0.25 0.31c0.37,0.4 1.39,1.58 1.7,1.83 0.14,0.12 0.66,0.72 1.01,1.01 0.12,0.11 0.12,0.16 0.24,0.28l0.51 0.48c0.35,0.35 0.69,0.64 1.04,0.99l1.32 1.14c0.14,0.08 0.2,0.11 0.29,0.22 0.18,0.23 0.52,0.57 0.79,0.72 0.31,0.19 0.75,0.7 1.08,0.9 0.18,0.11 0.31,0.18 0.45,0.33 0.15,0.18 0.4,0.31 0.68,0.57 0.13,0.1 0.2,0.1 0.32,0.19 0.09,0.07 0.16,0.16 0.24,0.24 0.29,0.28 0.93,0.56 1.19,0.83 0.28,0.31 0.29,0.22 0.59,0.41 0.23,0.15 0.3,0.27 0.59,0.39 0.21,0.09 0.16,0.07 0.31,0.22 0.19,0.2 0.92,0.61 1.22,0.8 0.28,0.17 0.23,0.26 0.59,0.4 0.34,0.13 0.37,0.23 0.61,0.38 0.32,0.2 0.28,0.12 0.59,0.4 0.14,0.12 0.18,0.11 0.35,0.17 0.37,0.13 0.48,0.33 0.97,0.54 0.25,0.11 0.36,0.26 0.63,0.37 0.28,0.11 0.37,0.21 0.62,0.37 0.23,0.16 0.48,0.18 0.7,0.33 0.26,0.18 0.37,0.22 0.67,0.32 0.32,0.1 0.39,0.26 0.64,0.39l1.04 0.47c0.57,0.16 0.54,0.32 0.99,0.52 0.25,0.11 0.48,0.12 0.73,0.27 0.23,0.14 0.39,0.2 0.71,0.27 0.54,0.13 0.35,0.23 0.66,0.38 0.17,0.08 0.54,0.15 0.76,0.23 0.29,0.1 0.39,0.2 0.7,0.29 0.27,0.08 0.51,0.15 0.71,0.29 0.41,0.28 1.09,0.24 1.5,0.51 0.28,0.18 0.91,0.24 1.47,0.52 0.42,0.21 0.83,0.09 1.55,0.47 0.26,0.14 1.05,0.23 1.55,0.44 0.66,0.26 1.03,0.06 2.02,0.48 0.12,0.06 0.25,0.09 0.39,0.13 0.54,0.13 1.17,0.14 1.71,0.32 0.75,0.25 1.77,0.19 2.57,0.4 0.28,0.08 0.47,0.16 0.8,0.23 0.45,0.08 2.1,0.21 2.73,0.25 0.29,0.01 0.64,0.08 0.91,0.12 0.29,0.03 0.65,0.04 0.91,0.08 0.17,0.02 0.34,0.01 0.51,0.01 0.23,0 0.25,0.04 0.47,0.04 2.88,0.09 7.69,0.15 10.37,-0.23 0.91,-0.13 1.92,-0.08 2.82,-0.24 0.6,-0.1 1,-0.31 1.64,-0.39 0.57,-0.06 1.3,-0.08 1.78,-0.24 0.67,-0.22 1.4,-0.19 2.07,-0.43 0.58,-0.2 0.27,-0.21 1.21,-0.34 0.37,-0.06 0.52,-0.06 0.83,-0.17 0.49,-0.17 1.29,-0.32 1.58,-0.44 0.26,-0.11 0.47,-0.22 0.75,-0.28 0.25,-0.06 0.57,-0.09 0.81,-0.18 0.28,-0.11 0.41,-0.22 0.74,-0.3 0.3,-0.09 0.51,-0.09 0.77,-0.23 0.74,-0.38 1.15,-0.27 1.5,-0.52 0.29,-0.22 0.76,-0.23 1.07,-0.44 0.3,-0.21 0.83,-0.23 1.14,-0.41 0.25,-0.14 0.35,-0.26 0.64,-0.35 0.35,-0.1 0.45,-0.15 0.73,-0.31 0.23,-0.13 0.52,-0.15 0.76,-0.27 0.27,-0.14 0.3,-0.26 0.66,-0.37l1.4 -0.63c0.59,-0.44 0.61,-0.29 1,-0.51 0.11,-0.06 0.19,-0.14 0.31,-0.2 0.29,-0.15 0.4,-0.14 0.65,-0.35 0.23,-0.2 0.42,-0.22 0.68,-0.35 0.14,-0.08 0.15,-0.11 0.28,-0.19 0.22,-0.13 0.49,-0.2 0.68,-0.36 0.37,-0.33 0.65,-0.28 0.94,-0.56 0.23,-0.22 0.42,-0.21 0.65,-0.4 0.46,-0.38 0.6,-0.24 0.92,-0.59l0.91 -0.59c0.43,-0.22 0.47,-0.41 0.9,-0.6 0.19,-0.09 0.17,-0.09 0.31,-0.22 0.21,-0.19 0.49,-0.23 0.64,-0.39 0.08,-0.1 0.12,-0.17 0.22,-0.25 0.1,-0.09 0.21,-0.12 0.33,-0.19l1.44 -1.11c0.16,-0.16 0.4,-0.25 0.55,-0.43 0.12,-0.15 0.85,-0.62 1.13,-0.9 0.18,-0.19 0.4,-0.28 0.6,-0.44 0.12,-0.1 0.11,-0.16 0.24,-0.27 0.09,-0.08 0.19,-0.12 0.28,-0.2 0.14,-0.13 0.07,-0.14 0.25,-0.26 0.63,-0.43 0.24,-0.24 0.55,-0.48l1.31 -1.2c0.11,-0.11 0.17,-0.12 0.28,-0.23l1.56 -1.55c0.21,-0.16 0.32,-0.31 0.48,-0.51 0.29,-0.39 0.73,-0.63 0.98,-1.04 0.14,-0.24 0.34,-0.33 0.49,-0.55 0.1,-0.12 0.12,-0.15 0.23,-0.25 0.04,-0.04 0,0.01 0.06,-0.06 0.02,-0.03 0.04,-0.05 0.06,-0.07l1.06 -1.23c0.18,-0.23 0.11,0.01 0.48,-0.55 0.21,-0.31 0.75,-0.83 0.91,-1.11 0.21,-0.35 0.73,-0.83 0.91,-1.13 0.28,-0.48 0.39,-0.5 0.62,-0.88l0.41 -0.58c0.11,-0.17 0.13,-0.15 0.26,-0.26 0.17,-0.16 0.24,-0.44 0.4,-0.64 0.23,-0.28 0.23,-0.42 0.37,-0.61 0.22,-0.3 0.24,-0.12 0.44,-0.6l0.83 -1.2c0.11,-0.21 0.19,-0.46 0.34,-0.65 0.12,-0.14 0.12,-0.12 0.21,-0.31 0.12,-0.25 0.26,-0.36 0.39,-0.6 0.12,-0.22 0.2,-0.47 0.37,-0.66 0.15,-0.19 0.22,-0.44 0.35,-0.64 0.17,-0.29 0.23,-0.35 0.36,-0.68 0.12,-0.3 0.25,-0.34 0.4,-0.59 0.12,-0.22 0.18,-0.49 0.32,-0.71 0.22,-0.32 0.28,-0.7 0.51,-1 0.21,-0.26 0.2,-0.42 0.33,-0.71 0.06,-0.13 0.12,-0.18 0.19,-0.32 0.06,-0.14 0.09,-0.23 0.14,-0.38 0.05,-0.15 0.08,-0.27 0.14,-0.37 0.07,-0.11 0.15,-0.16 0.23,-0.29l0.58 -1.45c0.12,-0.42 0.19,-0.35 0.34,-0.65 0.12,-0.23 0.16,-0.52 0.25,-0.79 0.09,-0.28 0.21,-0.41 0.3,-0.68 0.1,-0.29 0.15,-0.52 0.29,-0.75 0.13,-0.22 0.2,-0.41 0.27,-0.73 0.11,-0.58 0.36,-0.94 0.5,-1.52l0.29 -0.74c0.23,-0.48 0.16,-1.1 0.44,-1.58 0.24,-0.41 0.25,-1.09 0.46,-1.57 0.11,-0.23 0.17,-0.56 0.19,-0.85 0.08,-0.94 0.33,-0.99 0.44,-1.58l0.2 -1.31c0.04,-0.19 0.08,-0.25 0.13,-0.39 0.25,-0.8 0.15,-1.89 0.41,-2.65 0.18,-0.51 0.28,-1.13 0.33,-1.7 0.05,-0.65 0.06,-1.26 0.13,-1.89 0.03,-0.27 0.1,-0.58 0.12,-0.87 0.03,-0.3 0.06,-0.66 0.09,-0.95 0.03,-0.3 0.01,-0.66 0.04,-0.95l-0.05 -8.3c-0.03,-0.24 -0.05,-0.64 -0.07,-0.91 -0.02,-0.31 -0.1,-0.6 -0.13,-0.91 -0.11,-0.96 -0.08,-1.87 -0.23,-2.82 -0.06,-0.34 -0.14,-0.52 -0.23,-0.81 -0.23,-0.82 -0.15,-1.84 -0.42,-2.64 -0.17,-0.52 -0.22,-1.22 -0.32,-1.75 -0.06,-0.3 -0.2,-0.46 -0.29,-0.74 -0.18,-0.55 -0.12,-1.14 -0.35,-1.69 -0.2,-0.48 -0.19,-1.18 -0.45,-1.61 -0.31,-0.55 -0.22,-1.16 -0.45,-1.57l-0.29 -0.75c-0.16,-0.71 -0.35,-0.75 -0.5,-1.52 -0.08,-0.42 -0.12,-0.43 -0.3,-0.74l-0.58 -1.49c-0.09,-0.29 -0.1,-0.5 -0.26,-0.73 -0.22,-0.29 -0.22,-0.36 -0.32,-0.71 -0.1,-0.36 -0.23,-0.4 -0.33,-0.71 -0.09,-0.26 -0.15,-0.54 -0.27,-0.76 -0.16,-0.3 -0.24,-0.15 -0.37,-0.62 -0.05,-0.15 -0.07,-0.26 -0.14,-0.38 -0.3,-0.52 -0.27,-0.72 -0.53,-1.02 -0.24,-0.3 -0.27,-0.71 -0.49,-1.02 -0.15,-0.19 -0.23,-0.46 -0.35,-0.68 -0.09,-0.16 -0.12,-0.16 -0.22,-0.3 -0.16,-0.22 -0.19,-0.46 -0.35,-0.69 -0.21,-0.32 -0.31,-0.63 -0.57,-0.94 -0.16,-0.19 -0.2,-0.49 -0.34,-0.69l-0.41 -0.63c-0.13,-0.23 -0.29,-0.39 -0.39,-0.64 -0.1,-0.25 -0.29,-0.35 -0.41,-0.58l-0.41 -0.62c-0.25,-0.4 -0.07,-0.25 -0.43,-0.61 -0.11,-0.1 -0.12,-0.18 -0.18,-0.33 -0.12,-0.29 -0.3,-0.38 -0.42,-0.62 -0.06,-0.12 -0.07,-0.21 -0.16,-0.32 -0.08,-0.11 -0.19,-0.16 -0.27,-0.24 -0.1,-0.1 -0.11,-0.2 -0.19,-0.33l-0.66 -0.89c-0.21,-0.21 -0.75,-1.03 -0.88,-1.14 -0.2,-0.17 -0.29,-0.37 -0.46,-0.58 -0.08,-0.11 -0.16,-0.16 -0.25,-0.27 -0.08,-0.11 -0.12,-0.21 -0.2,-0.31 -0.11,-0.14 -0.15,-0.1 -0.27,-0.25 -0.2,-0.26 -0.18,-0.3 -0.44,-0.56 -0.11,-0.11 -0.13,-0.17 -0.23,-0.28l-0.26 -0.26c-0.44,-0.6 -1.84,-2.09 -2.44,-2.69l-0.24 -0.28c-0.1,-0.11 -0.17,-0.12 -0.28,-0.23 -0.1,-0.12 -0.12,-0.18 -0.23,-0.29 -0.11,-0.1 -0.16,-0.1 -0.26,-0.21 -0.13,-0.13 -0.11,-0.16 -0.25,-0.27 -0.56,-0.45 -1.02,-1.04 -1.56,-1.5l-1.08 -0.95c-0.12,-0.11 -0.18,-0.1 -0.3,-0.21l-0.54 -0.5c-0.26,-0.26 -0.3,-0.24 -0.55,-0.43 -0.16,-0.12 -0.11,-0.15 -0.26,-0.26 -0.2,-0.15 -0.35,-0.34 -0.56,-0.48 -0.23,-0.15 -0.4,-0.24 -0.59,-0.44 -0.13,-0.15 -0.88,-0.63 -1.14,-0.89l-0.9 -0.65c-0.14,-0.08 -0.23,-0.08 -0.33,-0.19 -0.37,-0.41 -0.19,-0.19 -0.59,-0.45 -0.26,-0.16 -0.23,-0.25 -0.59,-0.4 -0.33,-0.13 -0.32,-0.29 -0.59,-0.44l-0.64 -0.4c-0.22,-0.13 -0.42,-0.24 -0.61,-0.42 -0.17,-0.17 -0.44,-0.2 -0.64,-0.35 -0.39,-0.29 -0.62,-0.33 -0.75,-0.46 -0.22,-0.23 0.18,0.2 -0.04,-0.05 -0.21,-0.24 -0.58,-0.24 -0.83,-0.45 -0.13,-0.11 -0.11,-0.15 -0.29,-0.23l-1.34 -0.69c-0.21,-0.14 -0.4,-0.28 -0.65,-0.38 -0.28,-0.12 -0.35,-0.25 -0.68,-0.36 -0.37,-0.12 -0.39,-0.09 -0.66,-0.33 -0.2,-0.17 -0.43,-0.23 -0.7,-0.34 -0.24,-0.09 -0.44,-0.23 -0.71,-0.32 -0.29,-0.09 -0.39,-0.24 -0.66,-0.38 -0.27,-0.13 -0.46,-0.14 -0.73,-0.26 -0.13,-0.05 -0.19,-0.11 -0.33,-0.18 -0.26,-0.12 -0.54,-0.14 -0.79,-0.24 -0.17,-0.08 -0.16,-0.13 -0.29,-0.23 -0.23,-0.17 -0.5,-0.18 -0.77,-0.27 -0.24,-0.08 -0.42,-0.21 -0.68,-0.3 -0.26,-0.09 -0.56,-0.14 -0.77,-0.27 -0.51,-0.34 -1.05,-0.26 -1.52,-0.55 -0.23,-0.14 -0.45,-0.17 -0.74,-0.25 -0.71,-0.17 -0.42,-0.25 -1.59,-0.48 -0.16,-0.03 -0.3,-0.05 -0.42,-0.09 -0.5,-0.18 -0.36,-0.24 -1.12,-0.4 -0.31,-0.06 -0.53,-0.16 -0.79,-0.24 -0.54,-0.17 -1.21,-0.17 -1.72,-0.35 -0.62,-0.23 -0.95,-0.31 -1.62,-0.4 -0.31,-0.04 -0.56,-0.1 -0.85,-0.19 -0.31,-0.11 -0.51,-0.12 -0.88,-0.16 -0.59,-0.06 -1.27,-0.09 -1.74,-0.28 -0.75,-0.31 -2.73,-0.34 -3.65,-0.44 -0.81,-0.09 -1,-0.16 -1.9,-0.17 -0.22,-0.01 -0.24,-0.04 -0.43,-0.05 -0.17,-0.01 -0.35,0.01 -0.52,0 -0.22,0 -0.24,-0.04 -0.47,-0.04l-1.55 0c-0.4,0 -0.64,-0.05 -0.99,-0.04l-4.95 0.09c-0.16,0.03 -0.27,0.03 -0.49,0.03 -0.71,0 -1.61,0.2 -2.33,0.26 -0.34,0.03 -0.6,0.02 -0.94,0.05 -0.48,0.04 -1.4,0.05 -1.83,0.24 -0.88,0.39 -1.69,0.23 -2.59,0.46 -0.82,0.21 -0.9,0.21 -1.72,0.36 -0.33,0.06 -0.51,0.12 -0.76,0.23 -0.51,0.22 -1.18,0.19 -1.71,0.35 -0.26,0.08 -0.46,0.2 -0.77,0.27 -0.32,0.07 -0.53,0.07 -0.82,0.17 -0.28,0.1 -0.39,0.24 -0.72,0.31 -0.55,0.12 -0.72,0.12 -1.22,0.33 -0.37,0.16 -0.82,0.19 -1.16,0.36 -0.34,0.16 -0.31,0.21 -0.74,0.3 -0.88,0.17 -0.63,0.26 -1.52,0.54 -0.28,0.09 -0.43,0.22 -0.69,0.31 -0.19,0.06 -0.63,0.14 -0.79,0.23 -0.15,0.08 -0.16,0.15 -0.29,0.23 -0.12,0.08 -0.22,0.1 -0.38,0.14l-0.74 0.3c-0.22,0.11 -0.48,0.16 -0.73,0.26 -0.27,0.1 -0.36,0.3 -0.62,0.41 -0.27,0.11 -0.49,0.14 -0.75,0.29 -0.24,0.13 -0.5,0.17 -0.71,0.32 -0.23,0.17 -0.29,0.28 -0.62,0.37 -0.4,0.11 -0.39,0.18 -0.69,0.34 -0.24,0.13 -0.49,0.18 -0.7,0.35 -0.22,0.17 -0.41,0.24 -0.66,0.37 -0.22,0.11 -0.39,0.26 -0.63,0.36 -0.14,0.06 -0.22,0.08 -0.34,0.17 -0.14,0.11 -0.12,0.15 -0.29,0.23 -0.37,0.16 -0.38,0.09 -0.66,0.37 -0.21,0.21 -0.42,0.18 -0.65,0.39 -0.3,0.27 -0.56,0.23 -0.93,0.58 -0.22,0.22 -1.04,0.62 -1.25,0.82 -0.26,0.26 -0.32,0.22 -0.6,0.38 -0.11,0.07 -0.21,0.15 -0.3,0.23 -0.24,0.2 -0.43,0.17 -0.61,0.42 -0.24,0.31 -0.89,0.59 -1.2,0.87l-0.56 0.43c-0.11,0.09 -0.13,0.15 -0.27,0.24 -0.31,0.21 -0.31,0.24 -0.57,0.47 -0.09,0.08 -0.22,0.14 -0.32,0.2 -0.39,0.23 -0.72,0.68 -1.11,0.92 -0.27,0.16 -0.31,0.31 -0.56,0.47 -0.2,0.14 -0.19,0.22 -0.55,0.48l-1.08 0.95c-0.18,0.16 -0.34,0.36 -0.53,0.51l-0.21 0.17c-0.01,0 -0.02,0.01 -0.03,0.02 0,0.01 -0.01,0.02 -0.02,0.02 -0.25,0.27 -0.51,0.57 -0.8,0.79l-1.02 1.01c-0.21,0.2 -0.25,0.31 -0.49,0.5l-2.43 2.7c-0.18,0.15 -0.3,0.36 -0.48,0.51 -0.12,0.11 -0.26,0.38 -0.46,0.57 -0.12,0.13 -0.13,0.17 -0.22,0.3 -0.09,0.11 -0.15,0.16 -0.25,0.26 -0.19,0.2 -0.24,0.41 -0.43,0.61 -0.09,0.09 -0.16,0.15 -0.24,0.24 -0.08,0.1 -0.12,0.22 -0.2,0.32 -0.08,0.1 -0.17,0.15 -0.25,0.27 -0.07,0.11 -0.11,0.21 -0.2,0.31 -0.14,0.15 -0.13,0.06 -0.26,0.26l-0.42 0.61c-0.09,0.1 -0.11,0.21 -0.19,0.33 -0.16,0.25 -0.31,0.23 -0.45,0.54 -0.11,0.22 -0.29,0.39 -0.42,0.62 -0.24,0.43 -0.06,0.22 -0.41,0.61 -0.16,0.18 -0.22,0.44 -0.39,0.65 -0.21,0.25 -0.29,0.49 -0.53,0.73 -0.15,0.15 -0.15,0.31 -0.27,0.5 -0.14,0.22 -0.29,0.41 -0.39,0.64 -0.14,0.32 -0.28,0.28 -0.41,0.62 -0.12,0.29 -0.17,0.4 -0.36,0.64 -0.14,0.16 -0.23,0.47 -0.37,0.67 -0.2,0.31 -0.32,0.69 -0.56,0.98 -0.09,0.11 -0.13,0.19 -0.19,0.33l-0.35 0.65c-0.13,0.26 -0.12,0.5 -0.3,0.72 -0.22,0.27 -0.25,0.29 -0.37,0.67 -0.1,0.31 -0.24,0.41 -0.34,0.7 -0.12,0.36 -0.07,0.38 -0.32,0.66 -0.27,0.29 -0.27,0.74 -0.47,1.09 -0.18,0.32 -0.24,0.82 -0.45,1.1 -0.2,0.28 -0.22,0.32 -0.31,0.68 -0.09,0.36 -0.16,0.45 -0.29,0.74 -0.11,0.24 -0.17,0.52 -0.27,0.77 -0.1,0.26 -0.24,0.36 -0.32,0.71 -0.17,0.79 -0.11,0.54 -0.39,1.12 -0.17,0.35 -0.17,0.87 -0.37,1.19 -0.27,0.44 -0.19,1.12 -0.45,1.57 -0.27,0.47 -0.29,1.08 -0.47,1.6 -0.26,0.72 -0.2,1.03 -0.36,1.66 -0.08,0.32 -0.21,0.47 -0.29,0.75 -0.16,0.55 -0.17,1.23 -0.31,1.76 -0.04,0.17 -0.06,0.18 -0.11,0.36 -0.12,0.44 -0.11,0.89 -0.18,1.37 -0.16,1.18 -0.45,1.63 -0.49,2.57l-0.13 1.94c-0.02,0.3 -0.1,0.61 -0.13,0.91 -0.11,1.24 -0.17,2.57 -0.17,3.92z"/>
  <path class="fil1" d="M6.77 71.03c0,-1.35 0.06,-2.68 0.17,-3.92 0.03,-0.3 0.11,-0.61 0.13,-0.91l0.13 -1.94c0.04,-0.94 0.33,-1.39 0.49,-2.57 0.07,-0.48 0.06,-0.93 0.18,-1.37 0.05,-0.18 0.07,-0.19 0.11,-0.36 0.14,-0.53 0.15,-1.21 0.31,-1.76 0.08,-0.28 0.21,-0.43 0.29,-0.75 0.16,-0.63 0.1,-0.94 0.36,-1.66 0.18,-0.52 0.2,-1.13 0.47,-1.6 0.26,-0.45 0.18,-1.13 0.45,-1.57 0.2,-0.32 0.2,-0.84 0.37,-1.19 0.28,-0.58 0.22,-0.33 0.39,-1.12 0.08,-0.35 0.22,-0.45 0.32,-0.71 0.1,-0.25 0.16,-0.53 0.27,-0.77 0.13,-0.29 0.2,-0.38 0.29,-0.74 0.09,-0.36 0.11,-0.4 0.31,-0.68 0.21,-0.28 0.27,-0.78 0.45,-1.1 0.2,-0.35 0.2,-0.8 0.47,-1.09 0.25,-0.28 0.2,-0.3 0.32,-0.66 0.1,-0.29 0.24,-0.39 0.34,-0.7 0.12,-0.38 0.15,-0.4 0.37,-0.67 0.18,-0.22 0.17,-0.46 0.3,-0.72l0.35 -0.65c0.06,-0.14 0.1,-0.22 0.19,-0.33 0.24,-0.29 0.36,-0.67 0.56,-0.98 0.14,-0.2 0.23,-0.51 0.37,-0.67 0.19,-0.24 0.24,-0.35 0.36,-0.64 0.13,-0.34 0.27,-0.3 0.41,-0.62 0.1,-0.23 0.25,-0.42 0.39,-0.64 0.12,-0.19 0.12,-0.35 0.27,-0.5 0.24,-0.24 0.32,-0.48 0.53,-0.73 0.17,-0.21 0.23,-0.47 0.39,-0.65 0.35,-0.39 0.17,-0.18 0.41,-0.61 0.13,-0.23 0.31,-0.4 0.42,-0.62 0.14,-0.31 0.29,-0.29 0.45,-0.54 0.08,-0.12 0.1,-0.23 0.19,-0.33l0.42 -0.61c0.13,-0.2 0.12,-0.11 0.26,-0.26 0.09,-0.1 0.13,-0.2 0.2,-0.31 0.08,-0.12 0.17,-0.17 0.25,-0.27 0.08,-0.1 0.12,-0.22 0.2,-0.32 0.08,-0.09 0.15,-0.15 0.24,-0.24 0.19,-0.2 0.24,-0.41 0.43,-0.61 0.1,-0.1 0.16,-0.15 0.25,-0.26 0.09,-0.13 0.1,-0.17 0.22,-0.3 0.2,-0.19 0.34,-0.46 0.46,-0.57 0.18,-0.15 0.3,-0.36 0.48,-0.51l2.43 -2.7c0.24,-0.19 0.28,-0.3 0.49,-0.5l1.02 -1.01c0.29,-0.22 0.55,-0.52 0.8,-0.79 0.01,0 0.02,-0.01 0.02,-0.02 0.01,-0.01 0.02,-0.02 0.03,-0.02l0.21 -0.17c0.19,-0.15 0.35,-0.35 0.53,-0.51l1.08 -0.95c0.36,-0.26 0.35,-0.34 0.55,-0.48 0.25,-0.16 0.29,-0.31 0.56,-0.47 0.39,-0.24 0.72,-0.69 1.11,-0.92 0.1,-0.06 0.23,-0.12 0.32,-0.2 0.26,-0.23 0.26,-0.26 0.57,-0.47 0.14,-0.09 0.16,-0.15 0.27,-0.24l0.56 -0.43c0.31,-0.28 0.96,-0.56 1.2,-0.87 0.18,-0.25 0.37,-0.22 0.61,-0.42 0.09,-0.08 0.19,-0.16 0.3,-0.23 0.28,-0.16 0.34,-0.12 0.6,-0.38 0.21,-0.2 1.03,-0.6 1.25,-0.82 0.37,-0.35 0.63,-0.31 0.93,-0.58 0.23,-0.21 0.44,-0.18 0.65,-0.39 0.28,-0.28 0.29,-0.21 0.66,-0.37 0.17,-0.08 0.15,-0.12 0.29,-0.23 0.12,-0.09 0.2,-0.11 0.34,-0.17 0.24,-0.1 0.41,-0.25 0.63,-0.36 0.25,-0.13 0.44,-0.2 0.66,-0.37 0.21,-0.17 0.46,-0.22 0.7,-0.35 0.3,-0.16 0.29,-0.23 0.69,-0.34 0.33,-0.09 0.39,-0.2 0.62,-0.37 0.21,-0.15 0.47,-0.19 0.71,-0.32 0.26,-0.15 0.48,-0.18 0.75,-0.29 0.26,-0.11 0.35,-0.31 0.62,-0.41 0.25,-0.1 0.51,-0.15 0.73,-0.26l0.74 -0.3c0.16,-0.04 0.26,-0.06 0.38,-0.14 0.13,-0.08 0.14,-0.15 0.29,-0.23 0.16,-0.09 0.6,-0.17 0.79,-0.23 0.26,-0.09 0.41,-0.22 0.69,-0.31 0.89,-0.28 0.64,-0.37 1.52,-0.54 0.43,-0.09 0.4,-0.14 0.74,-0.3 0.34,-0.17 0.79,-0.2 1.16,-0.36 0.5,-0.21 0.67,-0.21 1.22,-0.33 0.33,-0.07 0.44,-0.21 0.72,-0.31 0.29,-0.1 0.5,-0.1 0.82,-0.17 0.31,-0.07 0.51,-0.19 0.77,-0.27 0.53,-0.16 1.2,-0.13 1.71,-0.35 0.25,-0.11 0.43,-0.17 0.76,-0.23 0.82,-0.15 0.9,-0.15 1.72,-0.36 0.9,-0.23 1.71,-0.07 2.59,-0.46 0.43,-0.19 1.35,-0.2 1.83,-0.24 0.34,-0.03 0.6,-0.02 0.94,-0.05 0.72,-0.06 1.62,-0.26 2.33,-0.26 0.22,0 0.33,0 0.49,-0.03l4.95 -0.09c0.35,-0.01 0.59,0.04 0.99,0.04l1.55 0c0.23,0 0.25,0.04 0.47,0.04 0.17,0.01 0.35,-0.01 0.52,0 0.19,0.01 0.21,0.04 0.43,0.05 0.9,0.01 1.09,0.08 1.9,0.17 0.92,0.1 2.9,0.13 3.65,0.44 0.47,0.19 1.15,0.22 1.74,0.28 0.37,0.04 0.57,0.05 0.88,0.16 0.29,0.09 0.54,0.15 0.85,0.19 0.67,0.09 1,0.17 1.62,0.4 0.51,0.18 1.18,0.18 1.72,0.35 0.26,0.08 0.48,0.18 0.79,0.24 0.76,0.16 0.62,0.22 1.12,0.4 0.12,0.04 0.26,0.06 0.42,0.09 1.17,0.23 0.88,0.31 1.59,0.48 0.29,0.08 0.51,0.11 0.74,0.25 0.47,0.29 1.01,0.21 1.52,0.55 0.21,0.13 0.51,0.18 0.77,0.27 0.26,0.09 0.44,0.22 0.68,0.3 0.27,0.09 0.54,0.1 0.77,0.27 0.13,0.1 0.12,0.15 0.29,0.23 0.25,0.1 0.53,0.12 0.79,0.24 0.14,0.07 0.2,0.13 0.33,0.18 0.27,0.12 0.46,0.13 0.73,0.26 0.27,0.14 0.37,0.29 0.66,0.38 0.27,0.09 0.47,0.23 0.71,0.32 0.27,0.11 0.5,0.17 0.7,0.34 0.27,0.24 0.29,0.21 0.66,0.33 0.33,0.11 0.4,0.24 0.68,0.36 0.25,0.1 0.44,0.24 0.65,0.38l1.34 0.69c0.18,0.08 0.16,0.12 0.29,0.23 0.25,0.21 0.62,0.21 0.83,0.45 0.22,0.25 -0.18,-0.18 0.04,0.05 0.13,0.13 0.36,0.17 0.75,0.46 0.2,0.15 0.47,0.18 0.64,0.35 0.19,0.18 0.39,0.29 0.61,0.42l0.64 0.4c0.27,0.15 0.26,0.31 0.59,0.44 0.36,0.15 0.33,0.24 0.59,0.4 0.4,0.26 0.22,0.04 0.59,0.45 0.1,0.11 0.19,0.11 0.33,0.19l0.9 0.65c0.26,0.26 1.01,0.74 1.14,0.89 0.19,0.2 0.36,0.29 0.59,0.44 0.21,0.14 0.36,0.33 0.56,0.48 0.15,0.11 0.1,0.14 0.26,0.26 0.25,0.19 0.29,0.17 0.55,0.43l0.54 0.5c0.12,0.11 0.18,0.1 0.3,0.21l1.08 0.95c0.54,0.46 1,1.05 1.56,1.5 0.14,0.11 0.12,0.14 0.25,0.27 0.1,0.11 0.15,0.11 0.26,0.21 0.11,0.11 0.13,0.17 0.23,0.29 0.11,0.11 0.18,0.12 0.28,0.23l0.24 0.28c0.6,0.6 2,2.09 2.44,2.69l0.26 0.26c0.1,0.11 0.12,0.17 0.23,0.28 0.26,0.26 0.24,0.3 0.44,0.56 0.12,0.15 0.16,0.11 0.27,0.25 0.08,0.1 0.12,0.2 0.2,0.31 0.09,0.11 0.17,0.16 0.25,0.27 0.17,0.21 0.26,0.41 0.46,0.58 0.13,0.11 0.67,0.93 0.88,1.14l0.66 0.89c0.08,0.13 0.09,0.23 0.19,0.33 0.08,0.08 0.19,0.13 0.27,0.24 0.09,0.11 0.1,0.2 0.16,0.32 0.12,0.24 0.3,0.33 0.42,0.62 0.06,0.15 0.07,0.23 0.18,0.33 0.36,0.36 0.18,0.21 0.43,0.61l0.41 0.62c0.12,0.23 0.31,0.33 0.41,0.58 0.1,0.25 0.26,0.41 0.39,0.64l0.41 0.63c0.14,0.2 0.18,0.5 0.34,0.69 0.26,0.31 0.36,0.62 0.57,0.94 0.16,0.23 0.19,0.47 0.35,0.69 0.1,0.14 0.13,0.14 0.22,0.3 0.12,0.22 0.2,0.49 0.35,0.68 0.22,0.31 0.25,0.72 0.49,1.02 0.26,0.3 0.23,0.5 0.53,1.02 0.07,0.12 0.09,0.23 0.14,0.38 0.13,0.47 0.21,0.32 0.37,0.62 0.12,0.22 0.18,0.5 0.27,0.76 0.1,0.31 0.23,0.35 0.33,0.71 0.1,0.35 0.1,0.42 0.32,0.71 0.16,0.23 0.17,0.44 0.26,0.73l0.58 1.49c0.18,0.31 0.22,0.32 0.3,0.74 0.15,0.77 0.34,0.81 0.5,1.52l0.29 0.75c0.23,0.41 0.14,1.02 0.45,1.57 0.26,0.43 0.25,1.13 0.45,1.61 0.23,0.55 0.17,1.14 0.35,1.69 0.09,0.28 0.23,0.44 0.29,0.74 0.1,0.53 0.15,1.23 0.32,1.75 0.27,0.8 0.19,1.82 0.42,2.64 0.09,0.29 0.17,0.47 0.23,0.81 0.15,0.95 0.12,1.86 0.23,2.82 0.03,0.31 0.11,0.6 0.13,0.91 0.02,0.27 0.04,0.67 0.07,0.91l0.05 8.3c-0.03,0.29 -0.01,0.65 -0.04,0.95 -0.03,0.29 -0.06,0.65 -0.09,0.95 -0.02,0.29 -0.09,0.6 -0.12,0.87 -0.07,0.63 -0.08,1.24 -0.13,1.89 -0.05,0.57 -0.15,1.19 -0.33,1.7 -0.26,0.76 -0.16,1.85 -0.41,2.65 -0.05,0.14 -0.09,0.2 -0.13,0.39l-0.2 1.31c-0.11,0.59 -0.36,0.64 -0.44,1.58 -0.02,0.29 -0.08,0.62 -0.19,0.85 -0.21,0.48 -0.22,1.16 -0.46,1.57 -0.28,0.48 -0.21,1.1 -0.44,1.58l-0.29 0.74c-0.14,0.58 -0.39,0.94 -0.5,1.52 -0.07,0.32 -0.14,0.51 -0.27,0.73 -0.14,0.23 -0.19,0.46 -0.29,0.75 -0.09,0.27 -0.21,0.4 -0.3,0.68 -0.09,0.27 -0.13,0.56 -0.25,0.79 -0.15,0.3 -0.22,0.23 -0.34,0.65l-0.58 1.45c-0.08,0.13 -0.16,0.18 -0.23,0.29 -0.06,0.1 -0.09,0.22 -0.14,0.37 -0.05,0.15 -0.08,0.24 -0.14,0.38 -0.07,0.14 -0.13,0.19 -0.19,0.32 -0.13,0.29 -0.12,0.45 -0.33,0.71 -0.23,0.3 -0.29,0.68 -0.51,1 -0.14,0.22 -0.2,0.49 -0.32,0.71 -0.15,0.25 -0.28,0.29 -0.4,0.59 -0.13,0.33 -0.19,0.39 -0.36,0.68 -0.13,0.2 -0.2,0.45 -0.35,0.64 -0.17,0.19 -0.25,0.44 -0.37,0.66 -0.13,0.24 -0.27,0.35 -0.39,0.6 -0.09,0.19 -0.09,0.17 -0.21,0.31 -0.15,0.19 -0.23,0.44 -0.34,0.65l-0.83 1.2c-0.2,0.48 -0.22,0.3 -0.44,0.6 -0.14,0.19 -0.14,0.33 -0.37,0.61 -0.16,0.2 -0.23,0.48 -0.4,0.64 -0.13,0.11 -0.15,0.09 -0.26,0.26l-0.41 0.58c-0.23,0.38 -0.34,0.4 -0.62,0.88 -0.18,0.3 -0.7,0.78 -0.91,1.13 -0.16,0.28 -0.7,0.8 -0.91,1.11 -0.37,0.56 -0.3,0.32 -0.48,0.55l-1.06 1.23c-0.02,0.02 -0.04,0.04 -0.06,0.07 -0.06,0.07 -0.02,0.02 -0.06,0.06 -0.11,0.1 -0.13,0.13 -0.23,0.25 -0.15,0.22 -0.35,0.31 -0.49,0.55 -0.25,0.41 -0.69,0.65 -0.98,1.04 -0.16,0.2 -0.27,0.35 -0.48,0.51l-1.56 1.55c-0.11,0.11 -0.17,0.12 -0.28,0.23l-1.31 1.2c-0.31,0.24 0.08,0.05 -0.55,0.48 -0.18,0.12 -0.11,0.13 -0.25,0.26 -0.09,0.08 -0.19,0.12 -0.28,0.2 -0.13,0.11 -0.12,0.17 -0.24,0.27 -0.2,0.16 -0.42,0.25 -0.6,0.44 -0.28,0.28 -1.01,0.75 -1.13,0.9 -0.15,0.18 -0.39,0.27 -0.55,0.43l-1.44 1.11c-0.12,0.07 -0.23,0.1 -0.33,0.19 -0.1,0.08 -0.14,0.15 -0.22,0.25 -0.15,0.16 -0.43,0.2 -0.64,0.39 -0.14,0.13 -0.12,0.13 -0.31,0.22 -0.43,0.19 -0.47,0.38 -0.9,0.6l-0.91 0.59c-0.32,0.35 -0.46,0.21 -0.92,0.59 -0.23,0.19 -0.42,0.18 -0.65,0.4 -0.29,0.28 -0.57,0.23 -0.94,0.56 -0.19,0.16 -0.46,0.23 -0.68,0.36 -0.13,0.08 -0.14,0.11 -0.28,0.19 -0.26,0.13 -0.45,0.15 -0.68,0.35 -0.25,0.21 -0.36,0.2 -0.65,0.35 -0.12,0.06 -0.2,0.14 -0.31,0.2 -0.39,0.22 -0.41,0.07 -1,0.51l-1.4 0.63c-0.36,0.11 -0.39,0.23 -0.66,0.37 -0.24,0.12 -0.53,0.14 -0.76,0.27 -0.28,0.16 -0.38,0.21 -0.73,0.31 -0.29,0.09 -0.39,0.21 -0.64,0.35 -0.31,0.18 -0.84,0.2 -1.14,0.41 -0.31,0.21 -0.78,0.22 -1.07,0.44 -0.35,0.25 -0.76,0.14 -1.5,0.52 -0.26,0.14 -0.47,0.14 -0.77,0.23 -0.33,0.08 -0.46,0.19 -0.74,0.3 -0.24,0.09 -0.56,0.12 -0.81,0.18 -0.28,0.06 -0.49,0.17 -0.75,0.28 -0.29,0.12 -1.09,0.27 -1.58,0.44 -0.31,0.11 -0.46,0.11 -0.83,0.17 -0.94,0.13 -0.63,0.14 -1.21,0.34 -0.67,0.24 -1.4,0.21 -2.07,0.43 -0.48,0.16 -1.21,0.18 -1.78,0.24 -0.64,0.08 -1.04,0.29 -1.64,0.39 -0.9,0.16 -1.91,0.11 -2.82,0.24 -2.68,0.38 -7.49,0.32 -10.37,0.23 -0.22,0 -0.24,-0.04 -0.47,-0.04 -0.17,0 -0.34,0.01 -0.51,-0.01 -0.26,-0.04 -0.62,-0.05 -0.91,-0.08 -0.27,-0.04 -0.62,-0.11 -0.91,-0.12 -0.63,-0.04 -2.28,-0.17 -2.73,-0.25 -0.33,-0.07 -0.52,-0.15 -0.8,-0.23 -0.8,-0.21 -1.82,-0.15 -2.57,-0.4 -0.54,-0.18 -1.17,-0.19 -1.71,-0.32 -0.14,-0.04 -0.27,-0.07 -0.39,-0.13 -0.99,-0.42 -1.36,-0.22 -2.02,-0.48 -0.5,-0.21 -1.29,-0.3 -1.55,-0.44 -0.72,-0.38 -1.13,-0.26 -1.55,-0.47 -0.56,-0.28 -1.19,-0.34 -1.47,-0.52 -0.41,-0.27 -1.09,-0.23 -1.5,-0.51 -0.2,-0.14 -0.44,-0.21 -0.71,-0.29 -0.31,-0.09 -0.41,-0.19 -0.7,-0.29 -0.22,-0.08 -0.59,-0.15 -0.76,-0.23 -0.31,-0.15 -0.12,-0.25 -0.66,-0.38 -0.32,-0.07 -0.48,-0.13 -0.71,-0.27 -0.25,-0.15 -0.48,-0.16 -0.73,-0.27 -0.45,-0.2 -0.42,-0.36 -0.99,-0.52l-1.04 -0.47c-0.25,-0.13 -0.32,-0.29 -0.64,-0.39 -0.3,-0.1 -0.41,-0.14 -0.67,-0.32 -0.22,-0.15 -0.47,-0.17 -0.7,-0.33 -0.25,-0.16 -0.34,-0.26 -0.62,-0.37 -0.27,-0.11 -0.38,-0.26 -0.63,-0.37 -0.49,-0.21 -0.6,-0.41 -0.97,-0.54 -0.17,-0.06 -0.21,-0.05 -0.35,-0.17 -0.31,-0.28 -0.27,-0.2 -0.59,-0.4 -0.24,-0.15 -0.27,-0.25 -0.61,-0.38 -0.36,-0.14 -0.31,-0.23 -0.59,-0.4 -0.3,-0.19 -1.03,-0.6 -1.22,-0.8 -0.15,-0.15 -0.1,-0.13 -0.31,-0.22 -0.29,-0.12 -0.36,-0.24 -0.59,-0.39 -0.3,-0.19 -0.31,-0.1 -0.59,-0.41 -0.26,-0.27 -0.9,-0.55 -1.19,-0.83 -0.08,-0.08 -0.15,-0.17 -0.24,-0.24 -0.12,-0.09 -0.19,-0.09 -0.32,-0.19 -0.28,-0.26 -0.53,-0.39 -0.68,-0.57 -0.14,-0.15 -0.27,-0.22 -0.45,-0.33 -0.33,-0.2 -0.77,-0.71 -1.08,-0.9 -0.27,-0.15 -0.61,-0.49 -0.79,-0.72 -0.09,-0.11 -0.15,-0.14 -0.29,-0.22l-1.32 -1.14c-0.35,-0.35 -0.69,-0.64 -1.04,-0.99l-0.51 -0.48c-0.12,-0.12 -0.12,-0.17 -0.24,-0.28 -0.35,-0.29 -0.87,-0.89 -1.01,-1.01 -0.31,-0.25 -1.33,-1.43 -1.7,-1.83l-0.25 -0.31c-0.34,-0.34 -0.22,-0.26 -0.44,-0.51l-0.47 -0.52c-0.34,-0.35 -0.23,-0.28 -0.45,-0.55 -0.09,-0.11 -0.17,-0.12 -0.26,-0.25l-1.75 -2.26c-0.11,-0.12 -0.16,-0.13 -0.24,-0.28l-0.4 -0.59c-0.1,-0.14 -0.09,-0.18 -0.17,-0.31 -0.08,-0.13 -0.16,-0.14 -0.27,-0.24 -0.18,-0.16 -0.24,-0.42 -0.39,-0.61 -0.09,-0.11 -0.14,-0.16 -0.21,-0.3 -0.35,-0.67 -0.05,-0.18 -0.41,-0.58l-0.76 -1.22c-0.08,-0.1 -0.18,-0.17 -0.25,-0.27 -0.07,-0.11 -0.09,-0.23 -0.16,-0.36 -0.12,-0.22 -0.28,-0.37 -0.38,-0.61 -0.12,-0.29 -0.28,-0.34 -0.4,-0.59 -0.15,-0.29 -0.11,-0.41 -0.34,-0.66 -0.18,-0.19 -0.25,-0.42 -0.37,-0.65 -0.08,-0.15 -0.13,-0.17 -0.21,-0.32 -0.12,-0.23 -0.17,-0.45 -0.33,-0.66 -0.27,-0.35 -0.28,-0.61 -0.52,-0.94 -0.19,-0.24 -0.18,-0.46 -0.31,-0.73 -0.05,-0.09 -0.15,-0.2 -0.22,-0.29 -0.15,-0.2 -0.21,-0.46 -0.31,-0.68 -0.06,-0.13 -0.11,-0.2 -0.17,-0.31 -0.14,-0.22 -0.13,-0.5 -0.28,-0.71 -0.2,-0.3 -0.26,-0.23 -0.39,-0.65 -0.17,-0.57 -0.31,-0.79 -0.52,-1.45 -0.1,-0.28 -0.3,-0.34 -0.38,-0.62 -0.08,-0.26 -0.11,-0.59 -0.21,-0.83 -0.11,-0.25 -0.2,-0.31 -0.32,-0.66 -0.25,-0.76 -0.3,-0.49 -0.52,-1.47 -0.07,-0.34 -0.17,-0.45 -0.3,-0.73 -0.11,-0.27 -0.13,-0.49 -0.21,-0.78 -0.09,-0.3 -0.23,-0.45 -0.3,-0.69 -0.08,-0.25 -0.1,-0.56 -0.16,-0.83 -0.08,-0.38 -0.2,-0.42 -0.31,-0.73 -0.1,-0.27 -0.12,-0.49 -0.18,-0.81 -0.06,-0.33 -0.15,-0.48 -0.24,-0.75 -0.17,-0.51 -0.15,-1.19 -0.34,-1.68 -0.11,-0.26 -0.2,-0.4 -0.26,-0.74 -0.11,-0.55 -0.14,-1.16 -0.3,-1.68 -0.25,-0.74 -0.15,-1.79 -0.44,-2.58 -0.29,-0.82 -0.25,-1.78 -0.37,-2.65 -0.04,-0.3 -0.03,-0.63 -0.06,-0.93 -0.03,-0.28 -0.09,-0.56 -0.12,-0.86 -0.15,-1.26 -0.17,-2.57 -0.17,-3.84l0 -3.62zm-6.77 1.59l0.04 3.75c0,0.89 0.07,2.5 0.24,3.22 0.07,0.33 0.08,0.62 0.13,0.98 0.14,0.99 0.17,2.06 0.38,3.02 0.22,0.99 0.13,2.01 0.48,2.93 0.27,0.67 0.21,1.45 0.49,2.35 0.05,0.17 0.07,0.31 0.11,0.5 0.07,0.33 0.1,0.62 0.17,0.95 0.13,0.6 0.3,0.46 0.5,1.74 0.06,0.35 0.19,0.55 0.27,0.89 0.06,0.27 0.12,0.64 0.22,0.9 0.14,0.34 0.27,0.43 0.34,0.83 0.14,0.9 0.33,1 0.52,1.77 0.09,0.4 0.21,0.44 0.35,0.77 0.12,0.29 0.11,0.6 0.21,0.9 0.1,0.3 0.26,0.43 0.36,0.77 0.09,0.32 0.2,0.53 0.35,0.81 0.13,0.26 0.12,0.59 0.25,0.87 0.16,0.32 0.26,0.4 0.38,0.79 0.09,0.3 0.26,0.48 0.37,0.75 0.11,0.27 0.13,0.64 0.3,0.86 0.24,0.31 0.23,0.32 0.38,0.74 0.06,0.2 0.1,0.23 0.18,0.38 0.14,0.23 0.19,0.56 0.35,0.77 0.29,0.4 0.21,0.23 0.39,0.73l0.58 1.15c0.39,0.52 0.13,0 0.4,0.76 0.1,0.26 0.29,0.43 0.4,0.71 0.06,0.14 0.1,0.25 0.2,0.37 0.11,0.11 0.19,0.19 0.25,0.35 0.07,0.16 0.08,0.24 0.16,0.4 0.15,0.27 0.19,0.18 0.43,0.69 0.08,0.17 0.13,0.19 0.23,0.33 0.17,0.21 0.22,0.53 0.4,0.73 0.23,0.26 0.27,0.47 0.47,0.69 0.25,0.26 0.25,0.54 0.55,0.83 0.03,0.03 0.11,0.13 0.13,0.17 0.1,0.18 0.09,0.22 0.23,0.37 0.19,0.21 0.26,0.46 0.42,0.7 0.1,0.15 0.16,0.17 0.27,0.3 0.1,0.12 0.13,0.25 0.22,0.38l0.45 0.67c0.12,0.23 0.13,0.12 0.27,0.29 0.1,0.12 0.12,0.22 0.21,0.35 0.08,0.13 0.18,0.17 0.26,0.3 0.09,0.13 0.11,0.22 0.21,0.35 0.24,0.31 0.22,0.22 0.5,0.66 0.09,0.13 0.17,0.17 0.27,0.29 0.12,0.13 0.1,0.19 0.24,0.33 0.1,0.1 0.19,0.17 0.26,0.29l0.75 0.98c0.21,0.22 0.37,0.56 0.5,0.66 0.12,0.09 0.19,0.14 0.29,0.27 0.11,0.15 0.15,0.17 0.27,0.3 0.11,0.11 0.13,0.2 0.23,0.32 0.11,0.13 0.21,0.18 0.32,0.29 0.1,0.1 0.14,0.22 0.24,0.31 0.39,0.34 0.27,0.36 0.55,0.58 0.19,0.15 0.14,0.1 0.29,0.31 0.19,0.29 0.73,0.75 0.82,0.86 0.37,0.49 2.11,2.26 2.54,2.59 0.22,0.18 0.36,0.37 0.57,0.55l0.64 0.53c0.12,0.1 0.13,0.18 0.26,0.29 0.1,0.09 0.23,0.16 0.32,0.24 0.14,0.13 0.09,0.14 0.28,0.28 0.32,0.23 0.22,0.31 0.61,0.56 0.25,0.16 0.79,0.76 0.9,0.82 0.35,0.2 0.37,0.29 0.64,0.48 0.13,0.09 0.23,0.13 0.33,0.23 0.11,0.1 0.18,0.19 0.29,0.28 0.16,0.13 0.32,0.21 0.46,0.35 0.03,0.04 0.12,0.11 0.17,0.14 0.24,0.16 0.41,0.34 0.66,0.5 0.24,0.15 0.39,0.34 0.63,0.49 0.32,0.21 0.71,0.47 0.98,0.74 0.14,0.15 0.16,0.14 0.34,0.23 0.26,0.13 0.43,0.32 0.7,0.46 0.32,0.15 0.31,0.31 0.65,0.47 0.14,0.07 0.24,0.11 0.36,0.2 0.2,0.16 0.49,0.3 0.67,0.45 0.12,0.11 0.15,0.19 0.3,0.26l0.73 0.43c0.12,0.09 0.24,0.12 0.36,0.2 0.14,0.1 0.14,0.16 0.31,0.26 0.24,0.14 0.53,0.25 0.74,0.42 0.21,0.17 0.5,0.24 0.71,0.41 0.26,0.22 0.52,0.22 0.76,0.4 0.3,0.22 0.72,0.43 1.04,0.64 0.14,0.09 0.22,0.11 0.4,0.16 0.37,0.12 0.4,0.29 0.69,0.43l0.77 0.39c0.26,0.15 0.57,0.15 0.79,0.33 0.14,0.11 0.16,0.17 0.32,0.24l0.82 0.35c0.13,0.08 0.24,0.12 0.39,0.17 0.72,0.24 0.14,0.24 1.18,0.54 0.16,0.05 0.26,0.1 0.4,0.17 0.15,0.08 0.2,0.14 0.36,0.2 0.28,0.1 0.57,0.14 0.81,0.31 0.24,0.17 0.52,0.22 0.81,0.3 0.31,0.08 0.5,0.27 0.8,0.37 0.16,0.05 0.28,0.07 0.43,0.13 0.31,0.13 0.47,0.28 0.82,0.35 0.85,0.17 0.8,0.33 1.7,0.58 0.11,0.03 0.3,0.08 0.43,0.13 0.1,0.05 0.09,0.06 0.16,0.09 0.34,0.17 0.8,0.18 1.15,0.28 0.35,0.1 0.46,0.25 0.78,0.34 0.33,0.09 0.6,0.13 0.92,0.24 0.15,0.05 0.27,0.1 0.43,0.14 0.16,0.04 0.33,0.07 0.46,0.09 1,0.2 1.1,0.37 1.78,0.51 0.34,0.06 0.66,0.1 0.99,0.17 0.32,0.08 0.56,0.17 0.89,0.24 0.65,0.13 1.23,0.14 1.85,0.39 0.59,0.24 1.39,0.19 2,0.28 0.37,0.06 0.63,0.1 1,0.16 0.63,0.1 1.28,0.24 2.04,0.24 0.31,0.01 0.74,0.08 1.01,0.12 0.36,0.05 0.68,0.13 0.99,0.18 0.34,0.05 0.68,0.08 0.99,0.12 0.41,0.06 2.87,0.01 3.39,0.07 0.84,0.09 2.88,0.05 3.93,0.03 0.24,0 0.27,-0.04 0.51,-0.04 0.37,-0.01 0.75,0 1.12,0 0.43,0 0.69,-0.04 1.12,-0.04 1.65,0 2.93,-0.39 4.61,-0.48 0.47,-0.02 1.01,-0.12 1.47,-0.21 0.65,-0.13 1.33,-0.19 2.03,-0.26 0.37,-0.04 0.61,-0.1 0.9,-0.22 0.54,-0.21 1.28,-0.26 1.87,-0.37 0.34,-0.07 0.59,-0.17 0.93,-0.23 0.3,-0.07 0.65,-0.11 0.96,-0.17 0.5,-0.1 0.43,-0.26 1.74,-0.5 0.41,-0.07 0.55,-0.16 0.9,-0.26 0.31,-0.09 0.6,-0.12 0.9,-0.22 0.3,-0.09 0.45,-0.23 0.79,-0.33 0.31,-0.1 0.59,-0.11 0.91,-0.22 0.31,-0.1 0.51,-0.24 0.85,-0.31 0.85,-0.18 0.54,-0.29 1.67,-0.57 0.33,-0.08 0.46,-0.21 0.78,-0.33l0.83 -0.34c0.32,-0.16 0.49,-0.16 0.85,-0.27 0.32,-0.09 0.46,-0.28 0.78,-0.39l0.77 -0.34c0.12,-0.06 0.28,-0.11 0.41,-0.15 0.13,-0.04 0.36,-0.07 0.47,-0.14 0.35,-0.22 0.19,-0.24 0.71,-0.41 0.34,-0.11 0.46,-0.25 0.76,-0.36 0.12,-0.04 0.29,-0.09 0.41,-0.15 0.15,-0.08 0.17,-0.15 0.31,-0.25 0.27,-0.18 0.55,-0.16 0.82,-0.34 0.38,-0.26 0.72,-0.29 1.06,-0.62 0.21,-0.2 0.55,-0.18 0.78,-0.35 0.24,-0.18 0.48,-0.24 0.72,-0.4l0.74 -0.43c0.14,-0.07 0.19,-0.15 0.32,-0.23 0.24,-0.17 0.51,-0.21 0.72,-0.4 0.15,-0.14 0.15,-0.14 0.34,-0.23 0.67,-0.32 0.2,-0.08 0.68,-0.43 0.12,-0.08 0.26,-0.13 0.39,-0.21 0.15,-0.09 0.14,-0.14 0.33,-0.23 0.43,-0.22 0.34,-0.17 0.68,-0.45 0.11,-0.09 0.22,-0.12 0.35,-0.21 0.23,-0.16 0.41,-0.34 0.68,-0.44 0.33,-0.14 0.33,-0.33 0.66,-0.5l0.68 -0.44c0.23,-0.16 0.41,-0.36 0.63,-0.49 0.19,-0.11 0.17,-0.08 0.34,-0.23 0.14,-0.13 0.33,-0.2 0.48,-0.33 0.19,-0.19 0.26,-0.27 0.5,-0.41 0.46,-0.27 0.81,-0.69 1.26,-0.98 0.13,-0.08 0.18,-0.16 0.3,-0.26 0.1,-0.09 0.2,-0.13 0.33,-0.23 0.4,-0.3 1.23,-1.14 1.52,-1.32 0.4,-0.25 0.33,-0.29 0.61,-0.51 0.17,-0.14 0.14,-0.11 0.28,-0.28 0.11,-0.13 0.2,-0.16 0.33,-0.24 0.19,-0.12 0.14,-0.17 0.28,-0.32 0.09,-0.11 0.21,-0.13 0.31,-0.24 0.06,-0.06 0.07,-0.1 0.12,-0.15 0.15,-0.16 0.33,-0.23 0.45,-0.41l0.6 -0.56c0.12,-0.1 0.19,-0.13 0.3,-0.27 0.26,-0.31 0.58,-0.55 0.86,-0.86 0.11,-0.11 0.14,-0.18 0.26,-0.3 0.11,-0.11 0.21,-0.16 0.3,-0.26 0.09,-0.1 0.14,-0.22 0.25,-0.31 0.2,-0.18 0.32,-0.41 0.56,-0.56 0.18,-0.12 0.14,-0.13 0.26,-0.3 0.14,-0.2 0.16,-0.11 0.3,-0.31 0.24,-0.35 0.39,-0.3 0.56,-0.56 0.18,-0.27 0.32,-0.35 0.5,-0.61 0.15,-0.21 0.25,-0.2 0.51,-0.61l0.27 -0.29c0.11,-0.13 0.15,-0.23 0.26,-0.35 0.2,-0.2 0.34,-0.38 0.52,-0.6 0.09,-0.11 0.19,-0.17 0.27,-0.29 0.11,-0.16 0.07,-0.19 0.22,-0.34 0.15,-0.14 0.17,-0.09 0.28,-0.28 0.29,-0.45 0.51,-0.59 0.77,-0.95 0.08,-0.11 0.15,-0.23 0.21,-0.35 0.09,-0.16 0.08,-0.21 0.24,-0.33 0.28,-0.21 0.27,-0.41 0.49,-0.63 0.2,-0.21 0.26,-0.44 0.45,-0.67 0.11,-0.13 0.16,-0.14 0.26,-0.3l0.46 -0.7c0.11,-0.19 0.1,-0.16 0.27,-0.29 0.23,-0.19 0.23,-0.5 0.41,-0.71 0.11,-0.13 0.15,-0.16 0.24,-0.32 0.21,-0.38 0.34,-0.42 0.46,-0.66 0.07,-0.13 0.12,-0.27 0.2,-0.4 0.1,-0.17 0.15,-0.15 0.25,-0.32 0.08,-0.15 0.11,-0.22 0.2,-0.35 0.32,-0.47 0.14,-0.1 0.43,-0.7 0.09,-0.19 0.11,-0.18 0.22,-0.34 0.16,-0.2 0.25,-0.5 0.4,-0.72 0.11,-0.16 0.15,-0.15 0.24,-0.36 0.16,-0.37 0.15,-0.39 0.4,-0.72 0.1,-0.14 0.14,-0.22 0.2,-0.36 0.07,-0.19 0.1,-0.2 0.21,-0.35 0.17,-0.24 0.17,-0.55 0.35,-0.78 0.11,-0.15 0.13,-0.1 0.24,-0.32 0.07,-0.16 0.1,-0.25 0.18,-0.42 0.08,-0.19 0.11,-0.19 0.21,-0.34 0.16,-0.24 0.14,-0.57 0.33,-0.79 0.13,-0.16 0.17,-0.13 0.26,-0.35l0.68 -1.6c0.26,-0.4 0.19,-0.11 0.37,-0.75 0.11,-0.38 0.22,-0.45 0.35,-0.77 0.12,-0.3 0.15,-0.55 0.33,-0.79 0.23,-0.31 0.22,-0.46 0.32,-0.85 0.06,-0.22 0.74,-1.68 0.82,-1.98 0.08,-0.29 0.09,-0.61 0.24,-0.88 0.09,-0.15 0.16,-0.2 0.22,-0.38 0.11,-0.3 0.12,-0.6 0.25,-0.87 0.29,-0.6 0.36,-1.46 0.52,-1.72 0.33,-0.52 0.27,-0.75 0.43,-1.3 0.05,-0.18 0.09,-0.25 0.14,-0.42 0.05,-0.16 0.08,-0.29 0.12,-0.45 0.17,-0.76 -0.02,-0.42 0.37,-1.3 0.25,-0.54 0.19,-1.35 0.39,-1.9 0.12,-0.3 0.16,-0.53 0.21,-0.9 0.05,-0.35 0.09,-0.64 0.15,-0.97 0.17,-0.84 0.3,-0.51 0.42,-1.87l0.29 -1.95c0.08,-0.38 0.05,-0.66 0.11,-1.06 0.11,-0.83 0.17,-1.66 0.33,-2.46 0.03,-0.15 0.04,-0.32 0.07,-0.5 0.12,-0.89 0.13,-3.39 0.14,-4.42 0.01,-0.38 0.06,-0.68 0.05,-1.12 -0.02,-0.52 -0.05,-0.45 0,-1.04 0.03,-0.37 -0.02,-0.77 -0.04,-1.08 -0.06,-0.71 0.01,-1.54 -0.05,-2.24 -0.02,-0.35 0.02,-0.76 0,-1.12 -0.06,-1.19 -0.29,-2.07 -0.38,-3.02 -0.07,-0.68 -0.1,-1.37 -0.2,-2.04 -0.05,-0.38 -0.12,-0.6 -0.18,-0.94 -0.13,-0.82 -0.11,-1.73 -0.33,-2.51 -0.06,-0.19 -0.11,-0.24 -0.16,-0.4 -0.2,-0.58 -0.16,-1.36 -0.35,-1.94 -0.22,-0.71 -0.33,-1.75 -0.55,-2.25 -0.21,-0.45 -0.24,-0.89 -0.36,-1.37 -0.07,-0.3 -0.18,-0.51 -0.26,-0.86 -0.23,-1.09 -0.23,-0.7 -0.42,-1.25 -0.16,-0.43 -0.18,-0.97 -0.37,-1.36 -0.19,-0.37 -0.22,-0.88 -0.45,-1.23 -0.26,-0.41 -0.23,-0.85 -0.4,-1.28 -0.13,-0.33 -0.25,-0.45 -0.36,-0.81 -0.12,-0.43 -0.37,-0.75 -0.47,-1.21 -0.08,-0.38 -0.32,-0.67 -0.51,-1.21 -0.11,-0.34 -0.27,-0.48 -0.37,-0.79 -0.1,-0.29 -0.12,-0.59 -0.31,-0.81 -0.2,-0.23 -0.24,-0.47 -0.36,-0.76 -0.07,-0.16 -0.14,-0.22 -0.2,-0.36 -0.13,-0.27 -0.18,-0.54 -0.37,-0.76 -0.1,-0.12 -0.16,-0.24 -0.22,-0.38l-0.36 -0.76c-0.17,-0.28 -0.14,-0.53 -0.37,-0.75 -0.25,-0.26 -0.29,-0.58 -0.59,-1.09 -0.15,-0.24 -0.23,-0.54 -0.42,-0.75 -0.19,-0.2 -0.24,-0.49 -0.39,-0.72 -0.31,-0.46 -0.19,-0.31 -0.41,-0.72 -0.15,-0.27 -0.27,-0.28 -0.43,-0.69 -0.13,-0.3 -0.32,-0.38 -0.46,-0.7 -0.06,-0.16 -0.13,-0.22 -0.22,-0.34 -0.21,-0.24 -0.23,-0.51 -0.42,-0.71 -0.13,-0.14 -0.15,-0.12 -0.25,-0.31 -0.13,-0.26 -0.31,-0.4 -0.44,-0.67 -0.08,-0.16 -0.1,-0.28 -0.21,-0.4 -0.13,-0.14 -0.17,-0.1 -0.29,-0.27 -0.08,-0.12 -0.11,-0.24 -0.19,-0.36 -0.08,-0.11 -0.17,-0.2 -0.25,-0.32 -0.08,-0.11 -0.13,-0.24 -0.21,-0.35 -0.09,-0.12 -0.17,-0.17 -0.27,-0.29 -0.1,-0.13 -0.12,-0.23 -0.2,-0.36 -0.09,-0.12 -0.18,-0.17 -0.26,-0.3 -0.08,-0.12 -0.14,-0.24 -0.23,-0.37 -0.26,-0.34 -0.09,-0.05 -0.49,-0.64 -0.09,-0.14 -0.15,-0.17 -0.26,-0.29 -0.13,-0.13 -0.12,-0.19 -0.24,-0.32 -0.11,-0.13 -0.17,-0.14 -0.26,-0.3 -0.09,-0.15 -0.11,-0.2 -0.23,-0.33 -0.28,-0.27 -0.93,-1.19 -1.02,-1.27 -0.41,-0.41 -0.44,-0.48 -0.77,-0.9 -0.11,-0.14 -0.19,-0.16 -0.31,-0.26l-1.33 -1.51c-0.13,-0.13 -0.16,-0.2 -0.28,-0.32 -0.37,-0.39 -0.72,-0.83 -1.13,-1.16 -0.2,-0.15 -0.33,-0.42 -0.53,-0.59 -0.56,-0.46 -1.22,-1.15 -1.75,-1.66l-0.62 -0.5c-0.11,-0.09 -0.15,-0.18 -0.26,-0.3l-0.32 -0.24c-0.14,-0.1 -0.1,-0.17 -0.27,-0.29 -0.17,-0.11 -0.18,-0.08 -0.31,-0.25 -0.09,-0.13 -0.13,-0.18 -0.28,-0.28 -0.18,-0.1 -0.19,-0.13 -0.33,-0.27 -0.13,-0.13 -0.19,-0.14 -0.31,-0.25 -0.1,-0.08 -0.16,-0.19 -0.27,-0.29 -0.11,-0.1 -0.22,-0.13 -0.34,-0.22 -0.3,-0.23 -0.59,-0.57 -0.9,-0.78 -0.13,-0.09 -0.23,-0.12 -0.35,-0.21 -0.13,-0.1 -0.19,-0.21 -0.31,-0.3 -0.21,-0.15 -0.44,-0.37 -0.64,-0.48 -0.38,-0.2 -0.61,-0.49 -0.96,-0.72l-0.65 -0.47c-0.19,-0.22 -0.45,-0.29 -0.68,-0.48 -0.21,-0.18 -0.59,-0.34 -0.69,-0.44 -0.11,-0.12 -0.1,-0.18 -0.27,-0.29 -0.11,-0.07 -0.24,-0.11 -0.37,-0.19 -0.15,-0.08 -0.2,-0.16 -0.32,-0.24 -0.12,-0.07 -0.26,-0.1 -0.38,-0.18 -0.16,-0.1 -0.14,-0.19 -0.31,-0.29 -0.24,-0.15 -0.48,-0.23 -0.7,-0.42 -0.11,-0.1 -0.22,-0.12 -0.36,-0.2 -0.17,-0.09 -0.18,-0.14 -0.32,-0.24 -0.2,-0.15 -0.54,-0.25 -0.72,-0.4 -0.33,-0.28 -0.5,-0.25 -0.73,-0.43 -0.42,-0.34 -0.54,-0.25 -1.06,-0.63l-1.08 -0.6c-0.12,-0.05 -0.3,-0.1 -0.4,-0.16 -0.38,-0.24 -0.19,-0.22 -0.73,-0.43 -0.16,-0.06 -0.25,-0.12 -0.36,-0.2 -0.26,-0.18 -0.55,-0.19 -0.81,-0.35 -0.13,-0.08 -0.2,-0.16 -0.32,-0.24 -0.23,-0.15 -0.57,-0.19 -0.78,-0.34 -0.23,-0.17 -0.57,-0.22 -0.82,-0.35 -0.17,-0.08 -0.15,-0.15 -0.32,-0.24 -0.22,-0.13 -0.59,-0.17 -0.83,-0.29 -0.28,-0.13 -0.45,-0.24 -0.77,-0.35 -0.36,-0.11 -0.45,-0.26 -0.77,-0.39 -0.28,-0.12 -0.6,-0.13 -0.86,-0.26l-0.8 -0.33c-0.48,-0.15 -0.51,-0.32 -1.22,-0.46 -0.25,-0.05 -0.25,-0.06 -0.44,-0.16 -0.43,-0.22 -0.81,-0.26 -1.26,-0.42 -0.64,-0.24 -0.21,-0.2 -1.29,-0.39 -0.36,-0.06 -0.54,-0.22 -0.82,-0.34 -0.25,-0.1 -0.61,-0.14 -0.9,-0.22 -0.28,-0.08 -0.56,-0.21 -0.87,-0.26 -0.22,-0.04 -0.73,-0.1 -0.93,-0.18 -0.15,-0.06 -0.25,-0.14 -0.37,-0.2 -0.28,-0.13 -0.63,-0.18 -0.94,-0.22 -0.19,-0.02 -0.32,-0.05 -0.48,-0.08 -0.37,-0.06 -0.57,-0.15 -0.89,-0.23 -0.61,-0.15 -1.36,-0.14 -1.92,-0.36 -0.6,-0.24 -1.24,-0.25 -1.9,-0.34 -0.37,-0.06 -0.65,-0.06 -1,-0.13 -1.27,-0.25 -1.76,-0.25 -3,-0.4 -0.71,-0.09 -1.33,-0.22 -2.02,-0.27 -2.67,-0.18 -5.52,-0.12 -8.23,-0.13l-3.24 0.12c-0.72,0.08 -1.27,0.18 -1.96,0.29 -1.03,0.16 -1.92,0.13 -3.04,0.37 -0.89,0.18 -2.21,0.18 -2.91,0.45 -0.57,0.22 -1.25,0.26 -1.86,0.38 -0.32,0.06 -0.56,0.16 -0.89,0.23 -0.35,0.07 -0.64,0.1 -0.99,0.17 -0.78,0.15 -0.63,0.32 -1.74,0.5 -0.32,0.06 -1.92,0.48 -2.18,0.63 -0.16,0.09 -0.19,0.1 -0.39,0.17 -0.45,0.14 -0.87,0.16 -1.3,0.37 -0.16,0.08 -0.23,0.09 -0.43,0.14 -0.16,0.04 -0.28,0.07 -0.43,0.12 -0.14,0.05 -0.29,0.14 -0.41,0.2 -0.38,0.2 -0.88,0.2 -1.29,0.39 -0.11,0.06 -0.22,0.13 -0.36,0.2 -0.26,0.12 -0.56,0.17 -0.81,0.31 -0.34,0.19 -0.41,0.18 -0.83,0.29 -0.37,0.1 -0.44,0.25 -0.75,0.38 -0.27,0.11 -0.55,0.16 -0.8,0.32 -0.41,0.25 -0.76,0.2 -1.17,0.51 -0.23,0.17 -0.56,0.22 -0.81,0.35 -0.49,0.27 -0.19,0.16 -0.77,0.35 -0.21,0.06 -0.19,0.1 -0.33,0.23 -0.23,0.22 -0.47,0.21 -0.77,0.35 -0.16,0.07 -0.22,0.13 -0.35,0.21 -0.11,0.06 -0.27,0.12 -0.39,0.17 -0.34,0.11 -0.39,0.29 -0.7,0.42 -0.13,0.06 -0.27,0.09 -0.41,0.15l-1.04 0.64c-0.25,0.2 -0.53,0.22 -0.77,0.39 -0.14,0.1 -0.16,0.14 -0.33,0.24 -0.14,0.07 -0.27,0.08 -0.39,0.17 -0.12,0.09 -0.14,0.15 -0.31,0.25 -0.29,0.17 -0.43,0.16 -0.7,0.41l-1.04 0.65c-0.33,0.14 -0.37,0.32 -0.65,0.47 -0.28,0.14 -0.44,0.3 -0.69,0.43 -0.12,0.05 -0.26,0.11 -0.37,0.19 -0.16,0.12 -0.11,0.17 -0.28,0.28 -0.12,0.07 -0.23,0.1 -0.37,0.2 -0.13,0.09 -0.19,0.18 -0.33,0.27 -0.12,0.08 -0.24,0.11 -0.36,0.19 -0.12,0.08 -0.18,0.18 -0.29,0.28 -0.25,0.21 -0.75,0.47 -0.99,0.69 -0.11,0.1 -0.17,0.17 -0.3,0.26 -0.13,0.1 -0.23,0.13 -0.34,0.21 -0.11,0.08 -0.18,0.19 -0.29,0.28 -0.11,0.08 -0.22,0.13 -0.34,0.22 -0.12,0.1 -0.16,0.18 -0.29,0.27 -0.23,0.15 -0.39,0.34 -0.62,0.5l-0.62 0.5c-0.17,0.11 -0.21,0.06 -0.35,0.21 -0.12,0.13 -0.12,0.2 -0.28,0.32 -0.14,0.11 -0.17,0.14 -0.3,0.27 -0.13,0.13 -0.17,0.12 -0.33,0.22 -0.2,0.14 -0.22,0.28 -0.4,0.42l-0.88 0.8c-0.23,0.25 -0.51,0.43 -0.76,0.67 -0.06,0.06 -0.08,0.07 -0.14,0.12 -0.45,0.38 -0.84,0.86 -1.28,1.25 -0.11,0.1 -0.21,0.16 -0.31,0.26l-0.14 0.16c-0.44,0.58 -1.08,0.99 -1.52,1.58l-0.79 0.89c-0.13,0.11 -0.17,0.16 -0.26,0.31 -0.12,0.2 -0.13,0.14 -0.28,0.27 -0.11,0.11 -0.14,0.19 -0.26,0.31 -0.1,0.1 -0.21,0.15 -0.29,0.26 -0.08,0.11 -0.12,0.24 -0.23,0.34 -0.09,0.08 -0.05,0.02 -0.14,0.12 -0.15,0.16 -0.24,0.31 -0.41,0.44 -0.17,0.14 -0.3,0.47 -0.5,0.67l-1.24 1.56c-0.09,0.13 -0.17,0.17 -0.26,0.3 -0.1,0.13 -0.12,0.21 -0.22,0.34l-0.74 0.94c-0.12,0.15 -0.19,0.35 -0.34,0.48l-0.59 0.83c-0.1,0.14 -0.13,0.24 -0.22,0.38 -0.23,0.33 -0.26,0.21 -0.47,0.66l-0.68 0.99c-0.16,0.16 -0.14,0.11 -0.23,0.34l-0.63 1.04c-0.13,0.14 -0.17,0.14 -0.25,0.31 -0.27,0.6 -0.33,0.53 -0.59,1.1 -0.07,0.14 -0.15,0.22 -0.23,0.33 -0.18,0.25 -0.21,0.48 -0.41,0.75 -0.17,0.21 -0.29,0.48 -0.41,0.71 -0.17,0.33 -0.23,0.34 -0.37,0.75 -0.13,0.36 -0.3,0.31 -0.44,0.69 -0.12,0.38 -0.23,0.45 -0.37,0.75 -0.13,0.27 -0.16,0.55 -0.34,0.77 -0.19,0.24 -0.25,0.48 -0.38,0.75 -0.06,0.14 -0.15,0.23 -0.21,0.35 -0.12,0.23 -0.16,0.58 -0.32,0.8 -0.41,0.52 -0.25,0.71 -0.54,1.19 -0.15,0.25 -0.21,0.5 -0.32,0.79 -0.12,0.29 -0.3,0.46 -0.38,0.75 -0.11,0.41 -0.09,0.47 -0.3,0.82 -0.16,0.27 -0.18,0.52 -0.29,0.82 -0.12,0.32 -0.26,0.42 -0.34,0.78 -0.09,0.39 -0.07,0.54 -0.26,0.87 -0.28,0.5 -0.25,0.82 -0.45,1.27 -0.06,0.13 -0.12,0.19 -0.18,0.38 -0.1,0.3 -0.11,0.65 -0.19,0.93 -0.1,0.31 -0.25,0.48 -0.34,0.78 -0.09,0.31 -0.12,0.6 -0.22,0.91 -0.09,0.33 -0.18,0.46 -0.25,0.86 -0.19,1.05 -0.36,1.08 -0.5,1.74 -0.09,0.46 -0.14,0.99 -0.29,1.44 -0.16,0.46 -0.17,0.97 -0.25,1.43 -0.06,0.36 -0.11,0.6 -0.23,0.89 -0.35,0.87 -0.26,1.98 -0.47,2.9 -0.29,1.26 -0.27,2.73 -0.5,4.01 -0.17,0.91 -0.24,2.14 -0.24,3.13 0,0.36 0.02,0.77 0,1.12l-0.04 1.08c0,0.39 0,0.77 0,1.16z"/>
  <path class="fil1" d="M30.82 43.4c0.18,0.14 0.31,0.47 0.49,0.59l1.65 1.11c0.24,0.16 0.21,0.25 0.6,0.47 0.26,0.16 0.4,0.33 0.66,0.46 0.22,0.11 0.16,0.1 0.3,0.27 0.14,0.17 0.44,0.28 0.64,0.43 0.2,0.15 0.5,0.28 0.66,0.46 0.23,0.28 0.39,0.25 0.61,0.47 0.2,0.2 0.43,0.27 0.66,0.46l0.63 0.45c0.14,0.1 0.13,0.15 0.31,0.25 0.26,0.14 0.38,0.3 0.61,0.46 0.14,0.09 0.23,0.12 0.36,0.21 0.14,0.08 0.18,0.17 0.3,0.25 0.12,0.09 0.25,0.13 0.36,0.21 0.12,0.1 0.12,0.19 0.27,0.29 0.12,0.08 0.24,0.11 0.36,0.19l1.28 0.93c0.19,0.12 0.12,0.15 0.28,0.28 0.11,0.08 0.23,0.12 0.36,0.19 0.26,0.15 0.31,0.28 0.65,0.43 0.29,0.13 0.33,0.34 0.61,0.51l0.64 0.44c0.24,0.15 0.39,0.36 0.63,0.49 0.25,0.14 0.78,0.5 0.98,0.7 0.18,0.18 0.47,0.25 0.67,0.42 0.11,0.09 0.16,0.17 0.29,0.26 0.14,0.1 0.18,0.11 0.31,0.25 0.19,0.19 0.42,0.26 0.66,0.42 0.15,0.11 0.17,0.17 0.29,0.27 0.13,0.1 0.22,0.1 0.35,0.21 0.12,0.11 0.15,0.17 0.3,0.26 0.13,0.07 0.23,0.11 0.33,0.18 0.12,0.09 0.18,0.16 0.31,0.26l0.64 0.48c0.13,0.08 0.24,0.09 0.36,0.2 0.12,0.12 0.11,0.19 0.27,0.29 0.14,0.09 0.22,0.1 0.36,0.2 0.25,0.17 0.37,0.28 0.66,0.42 0.19,0.09 0.23,0.3 0.61,0.51 0.15,0.09 0.16,0.15 0.31,0.25 0.11,0.08 0.22,0.12 0.32,0.2 0.12,0.09 0.16,0.15 0.31,0.25 0.36,0.25 0.28,0.16 0.65,0.47 0.19,0.16 0.44,0.27 0.62,0.45 0.19,0.19 0.48,0.26 0.67,0.45 0.19,0.2 0.46,0.28 0.65,0.48 0.14,0.15 0.12,0.14 0.32,0.24l2.55 1.84c0.47,0.21 0.31,0.27 0.6,0.48 0.12,0.09 0.24,0.11 0.36,0.2l0.66 0.46c0.3,0.2 -0.13,0.03 0.62,0.5 0.15,0.09 0.14,0.14 0.32,0.24 0.45,0.25 0.34,0.3 0.98,0.66 0.19,0.11 0.17,0.15 0.3,0.26 0.1,0.08 0.22,0.13 0.34,0.22 0.31,0.23 0.26,0.24 0.64,0.44 0.26,0.14 0.37,0.35 0.63,0.49 0.25,0.13 0.22,0.22 0.62,0.45 0.31,0.18 0.8,0.63 1.32,0.93 0.25,0.14 0.36,0.35 0.62,0.5l0.97 0.66c0.12,0.12 0.15,0.18 0.3,0.26l1.28 0.93c0.12,0.08 0.2,0.09 0.32,0.19l0.64 0.48c0.2,0.24 0.4,0.28 0.66,0.46 0.13,0.08 0.17,0.18 0.3,0.26 0.13,0.09 0.24,0.11 0.36,0.21 0.38,0.31 0.15,0.24 0.7,0.24 0.12,0 0.21,-0.15 0.29,-0.22 0.11,-0.1 0.21,-0.13 0.34,-0.23 0.12,-0.09 0.17,-0.18 0.28,-0.27 0.13,-0.1 0.29,-0.14 0.66,-0.42l0.64 -0.48c0.13,-0.12 0.21,-0.12 0.35,-0.21 0.22,-0.14 0.35,-0.32 0.6,-0.48 0.25,-0.15 0.42,-0.32 0.68,-0.44 0.29,-0.15 0.18,-0.25 0.6,-0.48 0.25,-0.14 0.37,-0.32 0.66,-0.46 0.3,-0.15 0.36,-0.3 0.61,-0.47 0.13,-0.09 0.21,-0.11 0.33,-0.22 0.39,-0.35 0.87,-0.62 1.29,-0.92 0.12,-0.09 0.17,-0.18 0.3,-0.26l0.45 -0.32c0.16,-0.14 0.38,-0.21 0.54,-0.32 0.13,-0.09 0.17,-0.17 0.29,-0.27 0.13,-0.12 0.22,-0.12 0.36,-0.21 0.16,-0.11 0.09,-0.14 0.28,-0.28 0.13,-0.09 0.22,-0.11 0.35,-0.2 0.13,-0.1 0.19,-0.16 0.31,-0.26 0.1,-0.08 0.2,-0.12 0.31,-0.2 0.17,-0.1 0.18,-0.14 0.31,-0.25 0.11,-0.1 0.23,-0.13 0.35,-0.21 0.27,-0.18 0.09,-0.16 0.61,-0.47 0.16,-0.09 0.19,-0.15 0.31,-0.25 0.31,-0.23 0.38,-0.11 0.66,-0.46 0.15,-0.21 0.42,-0.27 0.63,-0.45 0.23,-0.19 0.43,-0.26 0.65,-0.47 0.19,-0.19 0.45,-0.29 0.63,-0.49 0.17,-0.18 0.45,-0.25 0.66,-0.46 0.22,-0.22 0.46,-0.24 0.65,-0.43 0.25,-0.24 0.45,-0.32 0.62,-0.49 0.22,-0.21 0.43,-0.26 0.65,-0.44 0.11,-0.09 0.17,-0.18 0.3,-0.26 0.13,-0.08 0.23,-0.1 0.35,-0.21 0.37,-0.33 1.93,-1.37 1.94,-1.38 0.13,-0.12 0.11,-0.19 0.26,-0.29 0.12,-0.08 0.24,-0.12 0.37,-0.2l0.64 -0.44c0.16,-0.09 0.17,-0.13 0.3,-0.25l0.95 -0.69c0.23,-0.17 0.4,-0.33 0.66,-0.47 0.23,-0.12 0.38,-0.31 0.62,-0.45 0.25,-0.15 0.39,-0.32 0.64,-0.48l0.94 -0.69c0.14,-0.14 0.16,-0.14 0.34,-0.23 0.26,-0.13 0.4,-0.29 0.61,-0.46 0.13,-0.11 0.22,-0.1 0.35,-0.22 0.15,-0.14 0.1,-0.13 0.32,-0.24l0.94 -0.69c0.11,-0.08 0.22,-0.18 0.32,-0.24 0.11,-0.07 0.23,-0.1 0.34,-0.19 0.11,-0.1 0.11,-0.19 0.26,-0.3 0.12,-0.09 0.23,-0.1 0.37,-0.18l0.66 -0.46c0.21,-0.14 0.13,-0.15 0.28,-0.28 0.09,-0.09 0.23,-0.13 0.35,-0.21 0.15,-0.1 0.16,-0.16 0.31,-0.25 0.12,-0.08 0.22,-0.13 0.32,-0.2 0.12,-0.09 0.17,-0.16 0.31,-0.25 0.04,-0.03 0.11,-0.08 0.16,-0.1 0.66,-0.36 0.18,-0.15 0.8,-0.57 0.12,-0.08 0.19,-0.18 0.29,-0.28 0.24,-0.22 0.42,-0.15 0.69,-0.43 0.21,-0.21 1.02,-0.69 1.27,-0.93 0.21,-0.19 0.44,-0.28 0.65,-0.47 0.25,-0.23 0.41,-0.19 0.63,-0.49 0.22,-0.28 0.41,-0.23 0.64,-0.44 0.13,-0.11 0.16,-0.15 0.32,-0.24 0.15,-0.08 0.24,-0.09 0.35,-0.21 0.13,-0.13 0.07,-0.14 0.26,-0.26 0.25,-0.15 0.81,-0.48 1.01,-0.66 0.39,-0.34 0.23,-0.2 0.62,-0.46 0.14,-0.1 0.14,-0.16 0.3,-0.26 0.12,-0.07 0.25,-0.13 0.35,-0.21 0.42,-0.34 0.3,-0.22 0.67,-0.46 0.14,-0.09 0.41,-0.47 0.51,-0.61 -0.11,-0.16 -0.2,-0.21 -0.32,-0.42 -0.15,-0.26 -0.12,-0.2 -0.35,-0.38 -0.18,-0.14 -0.15,-0.21 -0.38,-0.35 -0.15,-0.11 -0.27,-0.27 -0.39,-0.39 -0.08,-0.08 -0.37,-0.17 -0.5,-0.23 -0.17,-0.09 -0.24,-0.19 -0.45,-0.28 -0.27,-0.13 -0.57,-0.14 -0.81,-0.31 -0.7,-0.48 -1.98,-0.35 -3.01,-0.35 -0.24,0 -0.49,0 -0.73,0 -0.32,0 -0.45,-0.05 -0.73,-0.05 -0.55,0 -0.93,0.05 -1.47,0.05 -0.43,0 -0.7,-0.05 -1.12,-0.05 -0.24,0.01 -0.28,0.05 -0.52,0.05l-3.88 0c-0.26,0 -0.31,-0.04 -0.56,-0.05 -0.42,0 -0.69,0.05 -1.12,0.05 -0.5,0 -0.85,-0.05 -1.34,-0.05 -0.28,0 -0.37,0.05 -0.64,0.05l-3.67 0c-0.28,0 -0.37,-0.05 -0.64,-0.05 -0.5,0 -0.84,0.05 -1.34,0.05 -0.43,0 -0.7,-0.05 -1.12,-0.05 -0.26,0 -0.31,0.05 -0.56,0.05l-3.88 0c-0.25,0 -0.29,-0.04 -0.51,-0.05 -0.43,-0.01 -0.7,0.05 -1.13,0.05 -0.53,0 -0.93,-0.05 -1.46,-0.05 -0.3,0 -0.4,0.05 -0.69,0.05 -1.32,-0.01 -2.65,0.04 -3.97,0 -0.21,-0.01 -0.24,-0.04 -0.47,-0.05 -0.36,0 -0.6,0.05 -0.99,0.05 -0.44,0 -0.73,-0.05 -1.12,-0.05 -0.27,0 -0.34,0.04 -0.56,0.05 -1.27,0.04 -2.53,-0.01 -3.8,0 -0.3,0 -0.44,-0.04 -0.69,-0.05 -0.51,-0.01 -0.9,0.05 -1.38,0.05 -0.47,0 -0.86,-0.06 -1.38,-0.05l-1.37 0.05c-1.02,0 -2.05,0.03 -3.07,0 -0.22,-0.01 -0.26,-0.05 -0.51,-0.05 -0.39,0 -0.66,0.05 -1.08,0.05 -0.4,0 -0.68,-0.05 -1.04,-0.05l-4.39 0.05c-0.3,0 -0.43,-0.04 -0.69,-0.05 -0.52,0 -0.88,0.05 -1.38,0.05 -0.45,0 -0.87,-0.07 -1.38,-0.05 -1.4,0.08 -2.86,0.05 -4.27,0.05 -0.26,0 -0.31,-0.04 -0.55,-0.05 -0.43,0 -0.69,0.05 -1.13,0.05 -0.5,0 -0.84,-0.05 -1.33,-0.05 -0.29,0 -0.38,0.05 -0.65,0.05 -0.86,0 -3.25,0.05 -3.88,-0.01 -0.43,-0.03 -0.96,-0.05 -1.47,-0.04 -0.24,0.01 -0.39,0.05 -0.68,0.05 -0.64,-0.01 -1.52,-0.05 -2.06,0.19 -0.2,0.08 -0.2,0.18 -0.46,0.27 -0.27,0.09 -0.55,0.14 -0.77,0.3 -0.22,0.16 -0.52,0.25 -0.73,0.43 -0.17,0.15 -0.18,0.2 -0.4,0.34 -0.17,0.11 -0.24,0.25 -0.4,0.37 -0.23,0.17 -0.21,0.07 -0.38,0.36 -0.12,0.19 -0.21,0.28 -0.32,0.45z"/>
  <path class="fil1" d="M31.59 87.45c0.32,0.59 0.57,0.58 0.98,0.92 0.12,0.09 0.15,0.13 0.28,0.19 1.29,0.6 0.22,0.34 1.77,0.65 0.27,0.06 0.47,0.17 0.73,0.22 0.34,0.06 1.43,0.09 1.85,0.09l49.44 0c0.79,0 0.55,-0.77 0.8,-1.31 0.09,-0.19 0.13,-0.35 0.14,-0.59 0.08,-1.02 0.3,-0.98 0.5,-1.62 0.06,-0.2 0.08,-0.39 0.13,-0.6 0.11,-0.42 0.29,-0.62 0.4,-1.02 0.06,-0.21 0.08,-0.34 0.2,-0.49 0.15,-0.2 0.19,-0.18 0.27,-0.47 0.17,-0.61 0.28,-0.53 0.45,-0.96 0.21,-0.55 0.41,-0.56 0.54,-0.93 0.06,-0.19 0.12,-0.32 0.24,-0.45 0.06,-0.06 0.12,-0.11 0.17,-0.17 0.08,-0.11 0.07,-0.16 0.12,-0.27 0.09,-0.17 0.21,-0.25 0.3,-0.39 0.15,-0.23 0.23,-0.48 0.43,-0.65 0.17,-0.14 0.31,-0.4 0.49,-0.59 0.16,-0.16 0.14,-0.26 0.33,-0.4 0.21,-0.17 0.2,-0.15 0.35,-0.38 0.18,-0.29 0.47,-0.48 0.72,-0.71 0.12,-0.11 0.19,-0.28 0.31,-0.38 0.05,-0.05 0.14,-0.09 0.2,-0.14 0.14,-0.12 0.22,-0.25 0.38,-0.35 0.26,-0.17 0.27,-0.35 0.56,-0.52 0.19,-0.12 0.21,-0.22 0.4,-0.33 0.2,-0.12 0.28,-0.15 0.4,-0.33 -0.1,-0.45 -0.43,-0.6 -0.74,-0.85 -0.31,-0.25 -0.35,-0.25 -0.65,-0.44 -0.06,-0.03 -0.09,-0.06 -0.14,-0.11l-0.09 -0.09c0,0 -0.01,-0.01 -0.02,-0.02 -0.13,-0.13 -0.26,-0.15 -0.39,-0.25 -0.2,-0.15 -0.39,-0.33 -0.63,-0.46 -0.24,-0.13 -0.34,-0.31 -0.64,-0.47 -0.23,-0.12 -0.33,-0.3 -0.62,-0.46l-0.96 -0.72c-0.11,-0.09 -0.19,-0.13 -0.32,-0.2 -0.22,-0.11 -0.15,-0.12 -0.28,-0.27 -0.09,-0.11 -1.09,-0.66 -1.32,-0.89 -0.33,-0.34 -0.99,-0.65 -1.27,-0.92 -0.34,-0.34 -0.48,-0.33 -0.79,-0.59l-0.48 -0.34c-0.54,-0.47 -0.93,-0.62 -1.52,-0.16 -0.15,0.11 -0.2,0.2 -0.38,0.31 -0.18,0.11 -0.24,0.13 -0.41,0.28 -0.08,0.07 -0.39,0.23 -0.72,0.52l-0.71 0.51c-0.08,0.05 -0.13,0.06 -0.22,0.12 -0.14,0.09 -0.24,0.25 -0.37,0.36 -0.14,0.11 -0.28,0.14 -0.43,0.25 -0.15,0.11 -0.24,0.22 -0.4,0.3 -0.23,0.13 -0.24,0.05 -0.42,0.27l-0.4 0.33c-0.19,0.11 -0.22,0.19 -0.39,0.3l-1.09 0.76c-0.01,0.01 -0.02,0.02 -0.02,0.02l-0.13 0.13c-0.15,0.12 -0.28,0.15 -0.44,0.26 -0.17,0.12 -0.18,0.19 -0.38,0.31 -0.67,0.4 -0.33,0.3 -0.82,0.6 -0.1,0.06 -0.12,0.07 -0.2,0.15l-0.04 0.04c-0.18,0.17 -0.4,0.23 -0.59,0.39 -0.22,0.19 -0.78,0.61 -1.03,0.75 -0.1,0.05 -0.12,0.05 -0.22,0.12 -0.15,0.11 -0.21,0.23 -0.36,0.33 -0.28,0.18 -0.58,0.4 -0.88,0.55 -0.16,0.08 -0.23,0.21 -0.35,0.33l-0.83 0.59c-0.19,0.13 -0.59,0.27 -0.81,0.15l-0.61 -0.42c-0.22,-0.2 -0.38,-0.21 -0.59,-0.45 -0.08,-0.08 -0.13,-0.1 -0.23,-0.16 -0.19,-0.11 -0.25,-0.17 -0.4,-0.29 -0.18,-0.14 -0.24,-0.16 -0.46,-0.27 -0.25,-0.13 -0.17,-0.19 -0.35,-0.34 -0.14,-0.12 -0.32,-0.16 -0.45,-0.29 -0.09,-0.1 -0.01,-0.06 -0.17,-0.17l-0.61 -0.43c-0.15,-0.12 -0.28,-0.15 -0.42,-0.26 -0.17,-0.12 -0.19,-0.2 -0.41,-0.32 -0.32,-0.17 -0.35,-0.3 -0.84,-0.59 -0.21,-0.12 -0.21,-0.17 -0.38,-0.31 -0.15,-0.12 -0.31,-0.16 -0.45,-0.28 -0.29,-0.26 -0.57,-0.38 -0.79,-0.59l-0.81 -0.61c-0.69,-0.45 -0.24,-0.31 -0.83,-0.6l-0.84 -0.57c-0.47,-0.46 -0.48,-0.32 -0.8,-0.58l-0.8 -0.63c-0.14,-0.12 -0.28,-0.13 -0.43,-0.26 -0.09,-0.08 -0.07,-0.08 -0.18,-0.16 -0.1,-0.06 -0.16,-0.09 -0.24,-0.15 -0.53,-0.36 -0.51,-0.56 -1.16,-0.56 -0.3,0 -0.66,0.39 -0.88,0.54l-0.43 0.31c-0.16,0.14 -0.37,0.19 -0.54,0.36l-0.06 0.07c-0.01,0 -0.02,0.01 -0.02,0.02 -0.18,0.17 -0.46,0.27 -0.65,0.43l-0.44 0.29c-0.15,0.1 -0.23,0.25 -0.38,0.36l-0.84 0.57c-0.24,0.15 -0.22,0.17 -0.41,0.33l-0.64 0.44c-0.4,0.28 -0.63,0.5 -1.06,0.74l-0.79 0.64c-0.15,0.14 -0.27,0.17 -0.46,0.27 -0.24,0.12 -0.23,0.17 -0.41,0.33 -0.27,0.24 -1.11,0.73 -1.27,0.88 -0.19,0.18 -0.21,0.18 -0.42,0.31l-0.83 0.6c-0.2,0.22 -0.49,0.33 -0.72,0.52 -0.2,0.17 -0.37,0.18 -0.54,0.41 -0.2,0.27 -0.57,0.38 -0.83,0.6 -0.17,0.14 -0.3,0.17 -0.45,0.28 -0.16,0.12 -0.18,0.22 -0.39,0.34 -0.43,0.23 -0.85,0.68 -1.24,0.91 -0.48,0.3 -0.38,0.33 -0.85,0.58 -0.2,0.11 -0.23,0.22 -0.39,0.34 -0.35,0.26 -0.17,-0.05 -0.65,0.43 -0.06,0.07 -0.15,0.12 -0.22,0.16 -0.22,0.13 -0.21,0.17 -0.38,0.32 -0.14,0.12 -0.3,0.16 -0.46,0.27 -0.27,0.18 -0.2,0.19 -0.63,0.45 -0.1,0.06 -0.11,0.1 -0.2,0.18 -0.16,0.14 -0.26,0.16 -0.43,0.27 -0.15,0.1 -0.23,0.25 -0.38,0.35 -0.16,0.12 -0.31,0.13 -0.46,0.27 -0.2,0.17 -0.21,0.16 -0.44,0.29 -0.16,0.1 -0.23,0.21 -0.36,0.33 -0.13,0.13 -0.3,0.18 -0.45,0.28 -0.17,0.11 -0.26,0.21 -0.42,0.31 -0.2,0.14 -0.24,0.14 -0.42,0.32 -0.16,0.15 -0.25,0.16 -0.41,0.28 -0.16,0.12 -0.18,0.22 -0.39,0.34 -0.33,0.17 -0.43,0.31 -0.9,0.57 -0.23,0.14 -0.17,0.19 -0.36,0.33 -0.16,0.12 -0.3,0.15 -0.44,0.29 -0.26,0.24 -0.6,0.37 -0.84,0.62 -0.36,0.37 -1.12,0.54 -1.55,1.35z"/>
  <path class="fil1" d="M29.96 84.22c0.21,-0.12 0.19,-0.17 0.36,-0.29 0.19,-0.13 0.25,-0.09 0.42,-0.26l1.19 -0.84c0.22,-0.14 0.18,-0.21 0.36,-0.33 0.15,-0.1 0.29,-0.15 0.43,-0.26 0.08,-0.06 0.1,-0.1 0.19,-0.16 0.21,-0.15 0.42,-0.22 0.57,-0.41 0.16,-0.2 0.39,-0.26 0.7,-0.51l0.53 -0.34c0.14,-0.12 0.19,-0.21 0.37,-0.32 0.22,-0.14 0.21,-0.1 0.4,-0.28 0.14,-0.14 0.28,-0.16 0.43,-0.27 0.18,-0.13 0.13,-0.2 0.36,-0.33 0.15,-0.09 0.28,-0.12 0.42,-0.22 0.15,-0.11 0.19,-0.23 0.36,-0.33 0.29,-0.16 0.34,-0.32 0.58,-0.46 0.08,-0.04 0.14,-0.07 0.22,-0.12l0.82 -0.56c0.08,-0.06 0.1,-0.1 0.18,-0.16 0.08,-0.06 0.14,-0.07 0.23,-0.12 0.39,-0.2 0.76,-0.66 1.14,-0.88 0.18,-0.11 0.29,-0.1 0.44,-0.26 0.19,-0.19 0.08,-0.19 0.36,-0.33 0.31,-0.15 0.53,-0.38 0.83,-0.54 0.21,-0.11 0.22,-0.16 0.38,-0.31l1.18 -0.85c0.17,-0.13 0.2,-0.16 0.41,-0.28 0.21,-0.11 0.21,-0.2 0.38,-0.31 0.16,-0.11 0.25,-0.1 0.4,-0.24 0.17,-0.16 0.15,-0.2 0.38,-0.31 0.17,-0.08 0.32,-0.12 0.43,-0.26 0.17,-0.21 0.14,-0.17 0.38,-0.31 0.18,-0.11 0.2,-0.19 0.34,-0.31 0.14,-0.11 0.29,-0.15 0.44,-0.25l0.79 -0.59c0.14,-0.13 0.26,-0.16 0.42,-0.27 0.17,-0.12 0.22,-0.23 0.36,-0.33l0.83 -0.55c0.39,-0.16 0.39,-0.36 0.76,-0.57 0.18,-0.1 0.26,-0.19 0.4,-0.3 0.2,-0.14 0.44,-0.24 0.6,-0.42 0.12,-0.15 0.84,-0.6 1.01,-0.72 0.16,-0.11 0.23,-0.21 0.38,-0.31 0.21,-0.14 0.42,-0.23 0.59,-0.4 0.19,-0.18 0.4,-0.28 0.57,-0.46 0.22,-0.22 0.52,-0.27 0.82,-0.56 0.16,-0.15 0.28,-0.15 0.43,-0.26 0.17,-0.13 0.16,-0.2 0.38,-0.31 0.18,-0.09 0.28,-0.16 0.43,-0.26 -0.06,-0.14 -0.11,-0.39 -0.18,-0.5 -0.13,-0.19 -0.43,-0.28 -0.58,-0.46 -0.18,-0.2 -0.41,-0.24 -0.62,-0.41 -0.25,-0.2 -0.6,-0.33 -0.79,-0.59 -0.17,-0.21 -0.19,-0.15 -0.4,-0.29l-0.43 -0.31c-0.28,-0.19 -0.49,-0.43 -0.79,-0.59l-2.05 -1.44c-0.16,-0.11 -0.21,-0.23 -0.39,-0.34 -0.16,-0.09 -0.31,-0.14 -0.45,-0.24 -0.15,-0.11 -0.2,-0.22 -0.37,-0.32 -0.35,-0.2 -0.35,-0.27 -0.59,-0.44 -0.09,-0.06 -0.16,-0.09 -0.24,-0.15 -0.15,-0.1 -0.21,-0.2 -0.37,-0.32 -0.29,-0.19 -0.54,-0.39 -0.84,-0.54 -0.18,-0.09 -0.25,-0.22 -0.38,-0.36 -0.1,-0.1 -0.29,-0.16 -0.43,-0.25l-0.8 -0.58c-0.2,-0.22 -0.19,-0.16 -0.43,-0.31l-1.61 -1.18c-0.14,-0.14 -0.25,-0.19 -0.4,-0.29 -0.17,-0.12 -0.18,-0.19 -0.39,-0.31 -0.45,-0.23 -0.5,-0.39 -0.82,-0.56l-0.37 -0.27c-0.15,-0.15 -0.31,-0.15 -0.82,-0.6 -0.15,-0.13 -0.31,-0.15 -0.45,-0.29l-0.39 -0.29c-0.13,-0.1 -0.22,-0.24 -0.36,-0.34 -0.13,-0.09 -0.29,-0.16 -0.44,-0.24 -0.21,-0.13 -0.2,-0.19 -0.43,-0.31 -0.32,-0.16 -0.45,-0.38 -0.79,-0.59 -0.14,-0.08 -0.26,-0.21 -0.39,-0.3 -0.14,-0.1 -0.33,-0.16 -0.45,-0.28 -0.12,-0.1 -0.22,-0.24 -0.37,-0.32l-1.65 -1.15c-0.07,-0.06 -0.1,-0.12 -0.17,-0.18 -0.09,-0.07 -0.11,-0.06 -0.22,-0.12 -0.18,-0.1 -0.22,-0.22 -0.36,-0.33 -0.15,-0.11 -0.33,-0.15 -0.49,-0.25 -0.18,-0.11 -0.13,-0.2 -0.35,-0.34l-0.84 -0.54c-0.19,-0.11 -0.24,-0.2 -0.4,-0.32l-0.82 -0.56c-0.48,-0.24 -0.16,-0.43 -0.99,-0.43 -0.04,0.14 -0.05,0.06 -0.06,0.17l0.02 35.17c0,0.49 -0.02,0.67 0.09,1.06 0.05,0.18 0.1,0.27 0.18,0.43 0.11,0.23 0.1,0.19 0.29,0.32z"/>
  <path class="fil1" d="M105.34 96.46c-0.34,0 -1.08,-0.08 -1.32,-0.32 -0.13,-0.12 -0.13,-0.12 -0.29,-0.23 -0.35,-0.23 -0.25,-0.3 -0.44,-0.63 -0.5,-0.88 -0.35,-2.79 -0.17,-3.72 0.03,-0.14 0.07,-0.3 0.11,-0.41 0.23,-0.53 0.25,-0.93 0.43,-1.17 0.11,-0.15 0.13,-0.1 0.23,-0.32 0.31,-0.62 0.16,-0.28 0.41,-0.67 0.08,-0.11 0.11,-0.2 0.2,-0.32 0.13,-0.18 0.89,-0.93 1.07,-1.04 0.28,-0.16 0.34,-0.29 0.66,-0.42 0.14,-0.05 0.28,-0.09 0.39,-0.17 0.14,-0.09 0.12,-0.13 0.29,-0.23 0.39,-0.22 1.81,-0.24 2.36,-0.22 0.52,0.01 1.02,0.05 0.93,0.62 -0.05,0.33 -0.06,0.63 -0.11,0.93 -0.06,0.36 -0.19,0.53 -0.25,0.83 -0.23,0.99 -0.1,1.85 -0.38,2.81 -0.28,1.01 -0.07,0.86 -0.55,1.61 -0.21,0.33 -0.14,0.46 -0.32,0.75 -0.09,0.16 -0.13,0.14 -0.22,0.3 -0.32,0.6 -0.27,0.34 -0.46,0.62 -0.09,0.14 -0.1,0.18 -0.23,0.29 -0.16,0.13 -0.14,0.08 -0.29,0.27 -0.11,0.14 -0.13,0.15 -0.28,0.23 -0.13,0.07 -0.23,0.13 -0.33,0.23 -0.15,0.14 -0.11,0.14 -0.32,0.19 -0.44,0.1 -0.69,0.19 -1.12,0.19zm-15.13 -3.75c0,0.83 -0.01,1.73 0.15,2.52 0.15,0.73 0.17,1.51 0.37,2.22 0.06,0.2 0.14,0.27 0.2,0.49 0.09,0.36 0.07,0.78 0.23,1.06 0.09,0.15 0.17,0.17 0.26,0.39 0.06,0.14 0.1,0.32 0.15,0.5 0.1,0.35 0.29,0.53 0.4,0.89 0.1,0.34 0.35,0.51 0.51,0.83l0.48 0.81c0.1,0.17 0.19,0.2 0.3,0.34 0.09,0.11 0.16,0.26 0.26,0.39 0.11,0.17 0.19,0.2 0.3,0.35 0.11,0.15 0.13,0.26 0.27,0.38l0.7 0.63c0.13,0.13 0.13,0.22 0.3,0.34 0.69,0.48 0.75,0.7 1.48,1.11 0.17,0.11 0.18,0.19 0.35,0.29 0.16,0.09 0.28,0.13 0.43,0.22 0.16,0.1 0.26,0.21 0.41,0.28 0.14,0.08 0.3,0.12 0.46,0.19 0.35,0.16 0.33,0.23 0.86,0.44 0.19,0.07 0.25,0.14 0.42,0.22 0.33,0.17 0.67,0.16 1.01,0.28 0.37,0.13 0.52,0.29 0.97,0.37l2.18 0.4 1.24 0.06c0.74,0.1 1.69,-0.02 2.56,-0.01 0.42,0 0.81,-0.07 1.2,-0.09 0.43,-0.02 0.72,-0.15 1.09,-0.2 0.42,-0.07 0.77,-0.1 1.17,-0.17 0.56,-0.09 0.53,-0.2 0.95,-0.35 0.34,-0.11 0.76,-0.11 1.07,-0.22 0.18,-0.07 0.25,-0.15 0.42,-0.23 0.16,-0.07 0.31,-0.09 0.49,-0.15 0.29,-0.1 0.63,-0.36 0.63,-0.71 0,-0.24 -0.36,-0.65 -0.45,-1.18 -0.05,-0.24 -0.08,-0.47 -0.16,-0.67 -0.19,-0.52 -0.98,-0.32 -1.29,-0.09 -0.3,0.22 -0.34,0.23 -0.72,0.31 -0.3,0.06 -0.56,0.09 -0.85,0.18 -0.35,0.12 -0.44,0.16 -0.87,0.22 -0.62,0.08 -1.22,0.17 -1.82,0.29 -0.93,0.19 -2.83,0.26 -3.7,-0.01l-1 -0.21c-0.44,-0.06 -0.88,-0.14 -1.3,-0.3 -0.39,-0.14 -0.91,-0.17 -1.2,-0.39 -0.24,-0.18 -0.14,-0.17 -0.51,-0.27 -0.41,-0.11 -0.67,-0.36 -1.08,-0.51 -0.37,-0.13 -0.22,-0.18 -0.45,-0.37 -0.18,-0.14 -0.29,-0.14 -0.47,-0.3l-0.47 -0.36c-0.11,-0.1 -0.08,-0.1 -0.19,-0.2 -0.21,-0.19 -0.44,-0.35 -0.63,-0.57l-0.54 -0.63c-0.07,-0.1 -0.1,-0.16 -0.18,-0.25 -0.17,-0.2 -0.2,-0.16 -0.34,-0.43 -0.11,-0.24 -0.21,-0.26 -0.34,-0.48 -0.11,-0.19 -0.14,-0.35 -0.26,-0.52 -0.13,-0.19 -0.22,-0.25 -0.3,-0.51 -0.14,-0.5 -0.28,-0.71 -0.46,-1.14l-0.4 -1.19c-0.06,-0.23 -0.09,-0.41 -0.1,-0.67 -0.03,-0.7 -0.25,-1.42 -0.34,-2.08 -0.15,-1.01 -0.07,-2.17 0.04,-3.18 0.06,-0.54 0.19,-0.98 0.27,-1.54 0.06,-0.49 0.09,-1.05 0.28,-1.52 0.1,-0.23 0.15,-0.43 0.22,-0.69l0.27 -0.63c0.23,-0.41 0.18,-0.78 0.51,-1.3 0.19,-0.3 0.25,-0.55 0.48,-0.87 0.07,-0.1 0.11,-0.2 0.16,-0.31 0.13,-0.33 0.22,-0.3 0.37,-0.53l0.37 -0.54c0.06,-0.07 0.13,-0.15 0.18,-0.25 0.06,-0.09 0.12,-0.22 0.18,-0.29 0.08,-0.12 0.14,-0.12 0.25,-0.23 0.1,-0.1 0.12,-0.17 0.2,-0.27 0.09,-0.11 0.13,-0.09 0.23,-0.2 0.22,-0.24 0.09,-0.28 0.43,-0.47 0.17,-0.09 0.63,-0.52 0.73,-0.66 0.23,-0.29 1.31,-0.92 1.32,-0.92 0.11,-0.12 0.05,-0.12 0.24,-0.23 0.21,-0.11 0.45,-0.14 0.62,-0.29 0.19,-0.16 0.36,-0.24 0.61,-0.34 0.22,-0.08 0.36,-0.23 0.58,-0.32 0.25,-0.1 0.48,-0.11 0.71,-0.19 0.8,-0.29 0.14,-0.17 1.36,-0.45 0.64,-0.15 0.73,-0.24 1.48,-0.33 1.18,-0.13 4.07,-0.17 5.01,0.18 0.08,0.03 0.19,0.06 0.27,0.08 0.18,0.06 0.36,0.1 0.56,0.13 0.63,0.1 0.59,0.26 1.03,0.39 1.38,0.37 0.44,0.15 1.46,0.6l0.45 0.29c0.14,0.1 0.3,0.14 0.45,0.24 0.22,0.14 0.15,0.2 0.39,0.35 0.56,0.34 1.01,0.85 1.46,1.34 0.34,0.36 0.6,0.84 0.9,1.2 0.12,0.15 0.17,0.31 0.24,0.5 0.16,0.39 0.31,0.37 0.49,0.93 0.13,0.38 0.3,0.59 0.39,0.99 0.09,0.41 0.12,0.79 0.27,1.15 0.41,1 0.42,4.23 0.13,5.42 -0.06,0.23 -0.14,0.39 -0.2,0.58 -0.15,0.49 -0.1,1.13 -0.36,1.58 -0.06,0.11 -0.09,0.1 -0.16,0.23 -0.09,0.19 -0.11,0.36 -0.23,0.55 -0.1,0.18 -0.2,0.26 -0.3,0.47 -0.12,0.27 -0.07,0.28 -0.29,0.49 -0.17,0.16 -0.18,0.28 -0.32,0.45 -0.18,0.21 -0.41,0.39 -0.63,0.54 -0.31,0.21 -0.14,0.24 -0.67,0.49 -0.46,0.22 -0.64,0.36 -1.23,0.36 -0.46,0 -0.98,-0.14 -1.22,-0.55l-0.3 -0.61c-0.25,-0.56 -0.1,-2.05 0.03,-2.56 0.11,-0.41 0.16,-0.9 0.2,-1.36 0.04,-0.48 0.08,-0.96 0.16,-1.39 0.09,-0.45 0.25,-0.76 0.31,-1.25 0.04,-0.44 0.09,-0.98 0.16,-1.39 0.04,-0.23 0.06,-0.43 0.12,-0.65 0.22,-0.9 0.19,-1.85 0.38,-2.73 0.14,-0.7 0.34,-0.61 -0.3,-1.1 -0.39,-0.29 -0.96,-0.28 -1.4,-0.46 -0.22,-0.09 -0.47,-0.18 -0.74,-0.21 -0.62,-0.07 -2.86,-0.27 -3.4,-0.22 -0.13,0.01 -0.29,-0.01 -0.43,0l-2.11 0.21c-0.8,0.11 -0.51,0.19 -1.45,0.4 -0.35,0.08 -0.37,0.14 -0.63,0.32 -0.29,0.19 -0.71,0.21 -0.99,0.44 -0.18,0.15 -0.37,0.2 -0.57,0.34 -0.13,0.08 -0.14,0.13 -0.25,0.21 -0.24,0.17 -0.35,0.15 -0.58,0.37l-0.49 0.42c-0.13,0.11 -0.09,0.12 -0.23,0.24 -0.4,0.32 -0.37,0.37 -0.7,0.68 -0.11,0.1 -0.12,0.14 -0.21,0.27 -0.09,0.13 -0.12,0.14 -0.22,0.25 -0.2,0.21 -0.67,0.9 -0.76,1.13 -0.11,0.25 -0.22,0.36 -0.36,0.56 -0.12,0.17 -0.48,1.06 -0.54,1.31 -0.35,1.5 -0.41,-0.1 -0.68,3.07 -0.09,1.09 -0.12,1.03 0.01,2.23 0.24,2.19 0.37,1.41 0.66,2.31 0.08,0.22 0.12,0.34 0.23,0.5 0.23,0.31 0.25,0.48 0.56,0.74l0.26 0.29c0.07,0.07 0.15,0.1 0.23,0.17 0.14,0.12 0.17,0.26 0.36,0.37l1 0.51c0.63,0.16 0.86,0.3 1.09,0.37 0.64,0.17 1.55,0.12 2.18,-0.01l0.95 -0.3c0.74,-0.18 0.35,-0.08 0.88,-0.37 0.18,-0.11 0.46,-0.15 0.63,-0.27 0.13,-0.1 0.07,-0.07 0.17,-0.18 0.12,-0.11 0.23,-0.15 0.37,-0.23 0.38,-0.22 0.7,-0.58 1.01,-0.89l0.19 -0.24c0.15,-0.2 0.28,-0.16 0.42,-0.4 0.07,-0.13 0.11,-0.29 0.24,-0.36 0.14,-0.07 0.32,-0.1 0.46,-0.19 0.19,0.41 0.2,1.06 0.42,1.42 0.05,0.09 0.15,0.19 0.2,0.27 0.23,0.37 0.09,0.24 0.44,0.52 0.19,0.15 0.2,0.35 0.46,0.49 0.47,0.25 0.23,0.26 0.96,0.46 1.01,0.28 0.29,0.37 2.08,0.37 0.73,0 1.24,-0.26 2.09,-0.42 0.5,-0.1 0.54,-0.19 0.9,-0.35 0.45,-0.2 0.52,-0.13 0.92,-0.45l1.04 -0.68c0.2,-0.13 0.32,-0.34 0.56,-0.52 0.18,-0.14 0.23,-0.26 0.44,-0.39 0.19,-0.13 0.17,-0.16 0.28,-0.37l0.51 -0.73c0.19,-0.32 0.36,-0.36 0.5,-0.75 0.07,-0.2 0.14,-0.24 0.24,-0.41 0.15,-0.29 0.19,-0.57 0.39,-0.86 0.27,-0.4 0.27,-0.96 0.47,-1.43 0.21,-0.49 0.24,-1.06 0.32,-1.57 0.11,-0.77 0.31,-1.39 0.31,-2.23 0,-0.96 0.01,-1.8 -0.22,-2.72 -0.21,-0.88 -0.08,-1.14 -0.46,-2.12 -0.17,-0.42 -0.15,-0.96 -0.41,-1.31 -0.16,-0.22 -0.3,-0.68 -0.56,-1.16 -0.14,-0.25 -0.08,-0.37 -0.26,-0.61 -0.18,-0.23 -0.23,-0.18 -0.37,-0.49l-0.36 -0.51c-0.18,-0.24 -0.06,-0.28 -0.36,-0.5 -0.23,-0.17 -0.44,-0.64 -0.8,-0.92l-0.45 -0.45c-0.11,-0.1 -0.16,-0.11 -0.24,-0.19 -0.24,-0.24 -0.12,-0.18 -0.45,-0.42 -0.1,-0.07 -0.13,-0.13 -0.22,-0.21l-1.54 -1.04c-0.59,-0.3 -0.68,-0.47 -1.13,-0.6 -0.24,-0.07 -0.38,-0.17 -0.59,-0.27 -0.22,-0.1 -0.42,-0.12 -0.66,-0.2 -0.13,-0.04 -0.19,-0.07 -0.3,-0.13 -0.38,-0.2 -0.46,-0.27 -0.96,-0.34 -0.72,-0.1 -1.4,-0.36 -2.16,-0.42 -1.01,-0.07 -2.04,-0.09 -3.06,-0.09 -0.4,0 -0.69,0.04 -1.03,0.04 -0.26,0 -0.3,0.04 -0.52,0.05 -0.24,0 -0.34,0.01 -0.53,0.03 -0.95,0.12 -1.18,0.27 -1.88,0.36 -0.29,0.04 -0.68,0.11 -0.91,0.21 -0.25,0.11 -0.51,0.27 -0.79,0.33 -0.26,0.06 -1.51,0.49 -1.64,0.61 -0.39,0.36 -0.67,0.3 -1.06,0.57 -0.21,0.14 -0.52,0.23 -0.72,0.4 -0.13,0.1 -0.14,0.17 -0.3,0.26 -0.37,0.21 -0.31,0.11 -0.7,0.42 -0.21,0.17 -0.45,0.3 -0.64,0.48 -0.14,0.14 -0.2,0.12 -0.33,0.24 -0.15,0.13 -0.08,0.16 -0.27,0.29 -0.44,0.3 -0.31,0.29 -0.59,0.53l-0.58 0.54c-0.09,0.09 -0.12,0.2 -0.21,0.3 -0.11,0.12 -0.19,0.13 -0.31,0.25 -0.1,0.11 -0.14,0.2 -0.25,0.31 -0.1,0.12 -0.16,0.18 -0.25,0.32 -0.18,0.3 -0.21,0.23 -0.48,0.63 -0.16,0.24 -0.35,0.39 -0.46,0.66 -0.24,0.56 -0.32,0.36 -0.65,1.04 -0.09,0.18 -0.13,0.19 -0.22,0.34 -0.14,0.26 -0.15,0.52 -0.36,0.76 -0.34,0.38 -0.24,0.65 -0.54,1.14 -0.18,0.31 -0.18,0.73 -0.46,1.22 -0.28,0.48 -0.26,1.26 -0.46,1.78 -0.19,0.51 -0.24,1.3 -0.32,1.92 -0.05,0.31 -0.13,0.57 -0.18,0.94 -0.05,0.29 -0.08,0.68 -0.08,1.05z"/>
  <path class="fil1" d="M88.45 65.94c0.31,0.09 0.77,0.55 0.98,0.66l0.99 0.69c0.13,0.11 0.14,0.17 0.3,0.26 0.2,0.11 0.16,0.07 0.32,0.23 0.19,0.19 0.43,0.27 0.65,0.44l0.95 0.72c0.42,0.23 0.29,0.32 0.63,0.49 0.41,0.21 0.41,0.31 0.65,0.44 0.68,0.34 0.33,0.29 0.62,0.49 0.12,0.08 0.24,0.12 0.37,0.2 0.14,0.09 0.18,0.17 0.31,0.25 0.11,0.07 0.23,0.13 0.35,0.21 0.2,0.12 0.13,0.14 0.28,0.27 0.11,0.1 0.23,0.14 0.36,0.21 0.13,0.08 0.17,0.17 0.3,0.26 0.62,0.4 0.18,0.21 1,0.67 0.15,0.09 0.18,0.16 0.3,0.27 0.14,0.13 0.21,0.11 0.34,0.22 0.12,0.08 0.17,0.2 0.3,0.26 0.72,0.38 1.27,-0.15 1.48,-0.24 0.17,-0.09 0.38,-0.12 0.55,-0.18 0.22,-0.08 0.28,-0.16 0.48,-0.25 0.33,-0.15 0.81,-0.17 1.18,-0.29 0.22,-0.07 0.3,-0.14 0.51,-0.22 0.19,-0.06 0.39,-0.11 0.58,-0.15 1.18,-0.24 1.13,-0.28 2.47,-0.43 0.44,-0.05 0.97,0 1.4,-0.06 0.22,-0.03 0.42,-0.02 0.7,-0.03 0.24,-0.01 0.39,-0.04 0.69,-0.04l2.8 0.13c1.4,0.11 1.77,0.47 2.5,0.47 0.2,0 0.48,-0.17 0.48,-0.35l0 -23.66c0,-0.21 -0.04,-0.11 -0.02,-0.32 0.01,-0.13 0.02,-0.22 0.02,-0.37 -0.8,-0.18 -0.48,-0.02 -0.87,0.22 -0.17,0.11 -0.25,0.12 -0.42,0.27 -0.25,0.23 -0.54,0.33 -0.79,0.58l-0.8 0.59c-0.4,0.23 -0.07,0.21 -0.8,0.57 -0.25,0.12 -0.21,0.16 -0.39,0.31 -0.14,0.12 -0.28,0.12 -0.43,0.25 -0.17,0.16 -0.15,0.2 -0.37,0.32l-1.02 0.7c-0.45,0.44 -0.34,0.22 -0.59,0.45 -0.17,0.15 -0.18,0.18 -0.39,0.3 -0.22,0.12 -0.22,0.16 -0.39,0.3 -0.14,0.12 -0.29,0.14 -0.44,0.25 -0.14,0.09 -0.23,0.23 -0.35,0.34l-1.23 0.84c-0.19,0.19 -0.17,0.15 -0.41,0.28l-1.19 0.88c-0.23,0.12 -0.23,0.12 -0.4,0.29 -0.15,0.14 -0.27,0.14 -0.42,0.27 -0.13,0.12 -0.19,0.23 -0.36,0.33 -0.67,0.38 -0.48,0.36 -0.82,0.56 -0.07,0.04 -0.15,0.08 -0.21,0.13 -0.12,0.1 -0.07,0.09 -0.17,0.18 -0.12,0.11 -0.27,0.15 -0.42,0.26 -0.16,0.12 -0.23,0.2 -0.38,0.31l-0.84 0.54c-0.26,0.15 -0.18,0.19 -0.35,0.34 -0.14,0.11 -0.29,0.16 -0.44,0.26l-0.78 0.59c-0.14,0.19 -0.17,0.2 -0.39,0.3l-0.83 0.54c-0.17,0.12 -0.23,0.23 -0.37,0.32 -0.2,0.13 -0.24,0.09 -0.42,0.27l-0.76 0.63c-0.92,0.49 -0.4,0.29 -0.84,0.54 -0.2,0.12 -0.23,0.14 -0.39,0.3 -0.2,0.2 -0.35,0.16 -0.79,0.58 -0.06,0.05 -0.95,0.62 -1.21,0.86l-0.8 0.58c-0.69,0.43 -0.26,0.17 -0.58,0.46 -0.14,0.12 -0.29,0.1 -0.63,0.41 -0.21,0.2 -0.22,0.14 -0.42,0.27 -0.14,0.08 -0.23,0.22 -0.35,0.33 -0.3,0.27 -0.57,0.04 -0.57,0.85z"/>
  <path class="fil2" d="M105.34 96.46c0.43,0 0.68,-0.09 1.12,-0.19 0.21,-0.05 0.17,-0.05 0.32,-0.19 0.1,-0.1 0.2,-0.16 0.33,-0.23 0.15,-0.08 0.17,-0.09 0.28,-0.23 0.15,-0.19 0.13,-0.14 0.29,-0.27 0.13,-0.11 0.14,-0.15 0.23,-0.29 0.19,-0.28 0.14,-0.02 0.46,-0.62 0.09,-0.16 0.13,-0.14 0.22,-0.3 0.18,-0.29 0.11,-0.42 0.32,-0.75 0.48,-0.75 0.27,-0.6 0.55,-1.61 0.28,-0.96 0.15,-1.82 0.38,-2.81 0.06,-0.3 0.19,-0.47 0.25,-0.83 0.05,-0.3 0.06,-0.6 0.11,-0.93 0.09,-0.57 -0.41,-0.61 -0.93,-0.62 -0.55,-0.02 -1.97,0 -2.36,0.22 -0.17,0.1 -0.15,0.14 -0.29,0.23 -0.11,0.08 -0.25,0.12 -0.39,0.17 -0.32,0.13 -0.38,0.26 -0.66,0.42 -0.18,0.11 -0.94,0.86 -1.07,1.04 -0.09,0.12 -0.12,0.21 -0.2,0.32 -0.25,0.39 -0.1,0.05 -0.41,0.67 -0.1,0.22 -0.12,0.17 -0.23,0.32 -0.18,0.24 -0.2,0.64 -0.43,1.17 -0.04,0.11 -0.08,0.27 -0.11,0.41 -0.18,0.93 -0.33,2.84 0.17,3.72 0.19,0.33 0.09,0.4 0.44,0.63 0.16,0.11 0.16,0.11 0.29,0.23 0.24,0.24 0.98,0.32 1.32,0.32z"/>
 </g>
</svg>
