<?xml version="1.0" encoding="UTF-8"?>
<!DOCTYPE svg PUBLIC "-//W3C//DTD SVG 1.1//EN" "http://www.w3.org/Graphics/SVG/1.1/DTD/svg11.dtd">
<!-- Creator: CorelDRAW -->
<svg xmlns="http://www.w3.org/2000/svg" xml:space="preserve" width="81.28mm" height="81.28mm" version="1.1" style="shape-rendering:geometricPrecision; text-rendering:geometricPrecision; image-rendering:optimizeQuality; fill-rule:evenodd; clip-rule:evenodd"
viewBox="0 0 1428.34 1428.34"
 xmlns:xlink="http://www.w3.org/1999/xlink"
 xmlns:xodm="http://www.corel.com/coreldraw/odm/2003">
 <defs>
  <style type="text/css">
   <![CDATA[
 .fil0 {fill:#1777F1}
 .fil1 {fill:white}
   ]]>
  </style>
 </defs>
 <g id="Capa_x0020_1">
  <metadata id="CorelCorpID_0Corel-Layer"/>
  <g id="_2427566456480">
   <path class="fil0" d="M602.9 1419.72l-0 -498.85 -180.52 0.03c-1.93,-11.51 -1.74,-198.93 0.07,-205.74 7.83,-2.2 159.05,-0.92 180.14,-0.84 5.01,-61.48 -5.25,-150.55 4.19,-214.94 18.67,-127.39 100.59,-203.13 222.02,-217.69 55.95,-6.71 148.15,0.83 203.12,11.55l0.22 175.53c-63.4,3.4 -145.13,-15.2 -185.54,40.34 -18.7,25.71 -20.63,53.86 -20.63,91.66 0,35.97 -2.03,78.24 0.26,113.44l197.23 0.1 -31.27 206.51 -165.8 0.08 -0.41 498.83c13.84,0 57.05,-10.03 71.27,-14.08 73.66,-20.95 143.23,-49.51 205.77,-91.43 9.3,-6.23 16.58,-11.36 25.67,-17.64 45.93,-31.73 98.23,-80.22 133.27,-123.65l37.11 -48.03c13.33,-17.79 36.63,-56.49 48.22,-78.77l27.5 -59.15c24.42,-61.31 35.12,-101.36 46.08,-167.58 11.3,-68.3 9.79,-164.65 -4.79,-238.21 -14.25,-71.9 -33.17,-126.65 -65.33,-191.65 -2.82,-5.69 -4.67,-8.2 -7.48,-13.44 -17.21,-32.08 -36.08,-62.32 -58.06,-91.33l-33.06 -40.14c-2.51,-3 -2.45,-3.63 -5.27,-6.67 -11.55,-12.48 -30.97,-33.82 -42.58,-44.06l-33.59 -29.14c-26.89,-23.97 -82.46,-61.4 -114.56,-78.12 -109.82,-57.17 -211.85,-86.66 -341.92,-86.66 -112.48,0 -203.46,23.92 -282.59,57.87 -71.23,30.56 -119.64,63.35 -177.05,109.72 -14.37,11.61 -51.17,45.27 -60.56,57.44l-30.26 33.97c-30.36,35.95 -63.83,87.55 -85.07,130.05 -20.31,40.67 -36.22,76.46 -48.92,121.4 -19.35,68.47 -18.8,80.61 -27.31,144.52 -0.91,6.78 -0,13.04 -1.04,19.89 -4.08,27.04 1.31,112.57 5.93,141.78 8.31,52.55 17.38,88.71 34.06,137.77 6.48,19.05 28.88,72.52 38.56,88.43 10.42,17.12 17.49,33.54 31.06,54.09 18.76,28.39 51.38,75.07 74.27,97.52 10.98,10.76 27.23,31.54 42.18,42.96l22.76 20.56c22.07,20.71 77.08,57.79 100.14,71.62 60.27,36.15 112.07,56.07 179.65,75.72 15.06,4.38 58.36,14.41 72.83,14.41z"/>
   <path class="fil1" d="M602.9 1419.72c0.24,0.21 0.74,0.05 0.88,0.42 0.14,0.38 0.72,0.34 0.92,0.4 33.45,9.63 133.81,8.27 167.77,6.65 8.35,-0.4 17.98,-2.27 26.84,-3.03l26.67 -4.44 0.41 -498.83 165.8 -0.08 31.27 -206.51 -197.23 -0.1c-2.28,-35.2 -0.26,-77.47 -0.26,-113.44 0,-37.81 1.93,-65.96 20.63,-91.66 40.41,-55.54 122.14,-36.94 185.54,-40.34l-0.22 -175.53c-54.97,-10.72 -147.16,-18.26 -203.12,-11.55 -121.44,14.56 -203.35,90.3 -222.02,217.69 -9.44,64.39 0.82,153.46 -4.19,214.94 -21.1,-0.08 -172.31,-1.36 -180.14,0.84 -1.81,6.81 -2,194.24 -0.07,205.74l180.52 -0.03 0 498.85z"/>
  </g>
 </g>
</svg>
