<?xml version="1.0" encoding="UTF-8"?>
<!DOCTYPE svg PUBLIC "-//W3C//DTD SVG 1.1//EN" "http://www.w3.org/Graphics/SVG/1.1/DTD/svg11.dtd">
<!-- Creator: CorelDRAW -->
<svg xmlns="http://www.w3.org/2000/svg" xml:space="preserve" width="81.28mm" height="81.28mm" version="1.1" style="shape-rendering:geometricPrecision; text-rendering:geometricPrecision; image-rendering:optimizeQuality; fill-rule:evenodd; clip-rule:evenodd"
viewBox="0 0 1684.37 1684.37"
 xmlns:xlink="http://www.w3.org/1999/xlink"
 xmlns:xodm="http://www.corel.com/coreldraw/odm/2003">
 <defs>
  <style type="text/css">
   <![CDATA[
 .fil0 {fill:#2AA1DA}
 .fil2 {fill:#C8DAEA}
 .fil1 {fill:#FEFEFE}
   ]]>
  </style>
 </defs>
 <g id="Capa_x0020_1">
  <metadata id="CorelCorpID_0Corel-Layer"/>
  <g id="_2426197824624">
   <path class="fil0" d="M850.95 1082.06c-5.37,-2.01 -1.04,-1.08 -7.73,-1.76 -13.21,14.86 -32.79,27.77 -46.42,41.07 -15.15,14.79 -29.71,27.59 -44.27,41.73 -38.7,37.61 -63.44,71.11 -87.89,2.31 -15.11,-42.51 -30.95,-84.71 -46.12,-127.6l-34.94 -96.67c-5.17,-13.99 -5.9,-22.83 -13.54,-28.94l-204.06 -65.8c-21.28,-9.34 -27.73,-33.63 4.42,-51.36 32.37,-17.85 218.95,-87.57 256.19,-101.81 86.77,-33.18 174.73,-65.86 262.43,-97.24 88.33,-31.61 173.96,-64.19 262.39,-95.56 63.63,-22.58 112.22,-52.24 106,23.33 -4.02,48.9 -17.79,103.8 -28.19,151.08 -32.28,146.82 -67.35,290.3 -102.7,435.95 -5.82,23.97 -11.76,47.75 -17.7,71.83 -5.91,23.96 -17.43,44.64 -45.55,43.96 -26.52,-0.64 -43.06,-20.81 -57.37,-32.24l-154.94 -112.28zm-42.24 -1082.06l71.69 0c55.08,2.4 110.44,10.36 165.67,24.2 109.86,27.54 162.37,56.19 251.1,108.58 29.31,17.31 128.34,94.34 154.1,126.63l24.73 27.91c66.08,70.61 128.05,180.01 160.32,273.05 20.69,59.65 30.73,98.55 40.27,163.26 4.25,28.86 6.79,57.69 7.78,86.42l0 56c-2.03,60.34 -10.5,120.09 -23.85,178.62 -1.77,7.74 -3.89,13.95 -5.61,20.71l-18.59 58.61c-16.6,47.88 -38.98,97.44 -64.79,140.49l-39.8 61.96 -92.55 110.98c-9.47,9.45 -17.88,16.03 -27.19,25.44l-27.1 23.79c-55.82,46.91 -120.85,89.25 -187.1,119.94 -101.52,47.04 -215.39,73.93 -329.51,77.78l-56.72 0c-30.01,-1.02 -59.9,-3.67 -89.44,-8.01 -105.61,-15.52 -212.99,-51.32 -304.43,-106.13l-61.87 -39.89c-15.46,-10.3 -68.36,-52.18 -84.29,-68.36 -5.55,-5.63 -8.41,-7.35 -14.03,-12.29 -15.31,-13.48 -36.94,-40.11 -50,-53.52 -19.15,-19.67 -61.9,-77.69 -75.99,-101.22 -51.11,-85.38 -81.48,-146.2 -107.65,-250.27 -21.38,-85.02 -23.85,-136.35 -23.85,-225.29 0,-112.89 33.28,-236.76 77.78,-332.79 20.71,-44.68 32.4,-61.1 55.01,-99.39 11.26,-19.07 56.1,-79.42 71.17,-95.51l42.12 -45.61c4.49,-4.49 8.6,-9.2 13.34,-12.98 6.09,-4.86 8.32,-6.85 13.85,-12.47 46.98,-47.69 150.94,-115.13 214.52,-143.41 103.17,-45.88 211.17,-72.45 320.92,-77.22z"/>
   <path class="fil1" d="M570.04 912.2c9.27,2.39 12.66,0.92 19.39,-3.44l47.29 -29.93c21.32,-13.67 41.56,-26.79 62.45,-39.31 42.82,-25.64 83.59,-53.33 126.02,-79.2 74.11,-45.19 147.24,-92.53 222.68,-137.05 8.7,-5.14 24.07,-16.34 34.88,-16.25 -0.87,8.19 -7.61,14.93 -11.55,20.36l-109.38 109.85c-9.54,10.85 -23.27,19.38 -33.25,29.94 -23.17,24.5 -42.06,39.7 -65.72,60.66l-148.14 134.32c-22.4,21.32 -13.12,16.77 24.11,42.88l109.69 74.98c0.3,0.23 0.99,1.37 1.21,1.02 0.22,-0.36 0.85,0.67 1.23,1.05l154.94 112.28c14.31,11.44 30.85,31.6 57.37,32.24 28.12,0.68 39.64,-20 45.55,-43.96 5.94,-24.08 11.88,-47.86 17.7,-71.83 35.35,-145.64 70.42,-289.12 102.7,-435.95 10.4,-47.28 24.16,-102.18 28.19,-151.08 6.22,-75.57 -42.36,-45.91 -106,-23.33 -88.43,31.37 -174.06,63.95 -262.39,95.56 -87.7,31.38 -175.66,64.07 -262.43,97.24 -37.24,14.24 -223.81,83.96 -256.19,101.81 -32.16,17.73 -25.7,42.02 -4.42,51.36l204.06 65.8z"/>
   <path class="fil2" d="M570.04 912.2c7.64,6.1 8.37,14.94 13.54,28.94l34.94 96.67c15.17,42.89 31.01,85.09 46.12,127.6 24.46,68.8 49.19,35.3 87.89,-2.31 14.55,-14.14 29.11,-26.94 44.27,-41.73 13.63,-13.3 33.21,-26.21 46.42,-41.07 6.7,0.68 2.37,-0.25 7.73,1.76 -0.38,-0.38 -1.01,-1.41 -1.23,-1.05 -0.22,0.35 -0.91,-0.79 -1.21,-1.02l-109.69 -74.98c-37.23,-26.11 -46.51,-21.56 -24.11,-42.88l148.14 -134.32c23.65,-20.96 42.55,-36.16 65.72,-60.66 9.98,-10.56 23.71,-19.08 33.25,-29.94l109.38 -109.85c3.94,-5.43 10.68,-12.16 11.55,-20.36 -10.8,-0.09 -26.18,11.11 -34.88,16.25 -75.44,44.52 -148.57,91.86 -222.68,137.05 -42.43,25.87 -83.2,53.56 -126.02,79.2 -20.9,12.52 -41.14,25.64 -62.45,39.31l-47.29 29.93c-6.73,4.37 -10.12,5.83 -19.39,3.44z"/>
  </g>
 </g>
</svg>
