<?xml version="1.0" encoding="UTF-8"?>
<!DOCTYPE svg PUBLIC "-//W3C//DTD SVG 1.1//EN" "http://www.w3.org/Graphics/SVG/1.1/DTD/svg11.dtd">
<!-- Creator: CorelDRAW -->
<svg xmlns="http://www.w3.org/2000/svg" xml:space="preserve" width="76.2mm" height="76.2mm" version="1.1" style="shape-rendering:geometricPrecision; text-rendering:geometricPrecision; image-rendering:optimizeQuality; fill-rule:evenodd; clip-rule:evenodd"
viewBox="0 0 7620 7620"
 xmlns:xlink="http://www.w3.org/1999/xlink"
 xmlns:xodm="http://www.corel.com/coreldraw/odm/2003">
 <defs>
  <style type="text/css">
   <![CDATA[
 .fil0 {fill:#32D851}
 .fil2 {fill:#A0EAAF}
 .fil1 {fill:#F6F9F9}
   ]]>
  </style>
 </defs>
 <g id="Capa_x0020_1">
  <metadata id="CorelCorpID_0Corel-Layer"/>
  <circle class="fil0" cx="3810" cy="3810" r="3810"/>
  <g id="_2427574355504">
   <path class="fil0" d="M4878.71 4353.66c3.42,417.73 -382.71,584.66 -788.93,435.57 -597.63,-219.36 -1184.55,-776.72 -1323.24,-1317.84 -102.19,-398.72 102.13,-770.23 513.44,-680.48 334.67,592.98 119.6,670.94 14.87,822.92 91.32,275.82 474.3,698.1 829.85,715.78l188.38 -253.14c178.9,8.85 458.93,176.04 565.63,277.19zm-2633.98 1032.71c247.63,-9.26 560.2,-160.11 768.49,-84.93 260.44,94.04 337.47,168.69 677.88,200.14 934.47,86.35 1827.88,-659.03 1844.48,-1676.82 8.89,-544.48 -235.76,-996.67 -494.01,-1255.23 -1092.38,-1093.68 -3073.9,-258.66 -2925.25,1380.27 31.29,344.98 108.62,408.63 209.46,671.36 75.55,196.85 -46.79,548.91 -81.05,765.21z"/>
   <path class="fil1" d="M2244.73 5386.37c34.26,-216.3 156.6,-568.36 81.05,-765.21 -100.84,-262.73 -178.17,-326.38 -209.46,-671.36 -148.65,-1638.93 1832.87,-2473.95 2925.25,-1380.27 258.25,258.56 502.9,710.75 494.01,1255.23 -16.6,1017.79 -910.01,1763.17 -1844.48,1676.82 -340.41,-31.45 -417.44,-106.1 -677.88,-200.14 -208.29,-75.18 -520.86,75.67 -768.49,84.93zm-463.72 375.06c-29.91,147.65 -27.3,50.76 23.85,99.98 260.01,-21.53 614.19,-151.22 880.58,-215.37 223.59,-53.86 562.77,158.43 846.83,194.43 742.51,94.08 1216.15,-156.34 1650.14,-479.13 825.99,-614.34 999.02,-2168 113.67,-3046.21 -1383.45,-1372.3 -3803.77,-233.31 -3524.43,1770.69 30.42,218.26 248.03,725.07 235.9,813.73 -36.03,263.44 -197.01,592.37 -226.54,861.88z"/>
   <path class="fil1" d="M4878.71 4353.66c-106.7,-101.15 -386.73,-268.34 -565.63,-277.19l-188.38 253.14c-355.55,-17.68 -738.53,-439.96 -829.85,-715.78 104.73,-151.98 319.8,-229.94 -14.87,-822.92 -411.31,-89.75 -615.63,281.76 -513.44,680.48 138.69,541.12 725.61,1098.48 1323.24,1317.84 406.22,149.09 792.35,-17.84 788.93,-435.57z"/>
   <path class="fil2" d="M1804.86 5861.41c-51.15,-49.22 -53.76,47.67 -23.85,-99.98 -69.14,93.5 -39.06,17.41 -44.43,144.98l68.28 -45z"/>
  </g>
 </g>
</svg>
